<?xml version="1.0" encoding="utf-8"?>
<svg version="1.1" id="Layer_1" xmlns="http://www.w3.org/2000/svg" xmlns:xlink="http://www.w3.org/1999/xlink" x="0px" y="0px"
	 width="927px" height="325px" viewBox="0 0 927 325" enable-background="new 0 0 927 325" xml:space="preserve">
<g>
	<text transform="matrix(1 0 0 1 262.1299 100.936)" fill="#999" font-family="'Arial'" font-size="16">Azure Functions</text>
</g>
<g>
	<text transform="matrix(1 0 0 1 150.2734 100.936)" fill="#999" font-family="'Arial'" font-size="16">Xamarin</text>
</g>
<g>
	<text transform="matrix(1 0 0 1 432.041 100.936)" fill="#999" font-family="'Arial'" font-size="16">MVC</text>
</g>
<g>
	<text transform="matrix(1 0 0 1 39.356 100.936)" fill="#999" font-family="'Arial'" font-size="16">WPF</text>
</g>
<g>
	<text transform="matrix(1 0 0 1 677.2871 100.936)" fill="#999" font-family="'Arial'" font-size="16">Window Forms</text>
</g>
<g>
	<g>
		<g>
			<g>
				<path fill="#505CA9" d="M829.165,15.442v58.24h58.24v-58.24H829.165z M882.163,68.441h-47.758V20.683h47.758V68.441z"/>
			</g>
		</g>
		<g>
			<rect x="838.601" y="24.878" fill="#505CA9" width="10.482" height="10.482"/>
		</g>
		<g>
			<rect x="838.601" y="39.321" fill="#505CA9" width="10.482" height="10.482"/>
		</g>
		<g>
			<rect x="853.044" y="39.321" fill="#505CA9" width="10.482" height="10.482"/>
		</g>
		<g>
			<rect x="838.601" y="53.765" fill="#505CA9" width="10.482" height="10.482"/>
		</g>
		<g>
			<rect x="853.044" y="53.765" fill="#505CA9" width="10.482" height="10.482"/>
		</g>
		<g>
			<rect x="867.489" y="53.765" fill="#505CA9" width="10.481" height="10.482"/>
		</g>
	</g>
</g>
<g>
	<text transform="matrix(1 0 0 1 804.5986 100.936)" fill="#999" font-family="'Arial'" font-size="16">Micro Services</text>
</g>
<g>
	<text transform="matrix(1 0 0 1 563.1738 100.936)" fill="#999" font-family="'Arial'" font-size="16">Blazor</text>
</g>
<path fill="#2C7FC2" stroke="#2C7FC2" stroke-width="2" stroke-miterlimit="10" d="M443.62,193.012"/>
<path fill="#2C7FC2" stroke="#2C7FC2" stroke-width="2" stroke-miterlimit="10" d="M443.62,193.012"/>
<path fill="#2C7FC2" stroke="#2C7FC2" stroke-width="2" stroke-miterlimit="10" d="M460.941,280.008"/>
<g>
	<g>
		<g>
			<path fill="#505CA9" d="M350.02,42.665l-3.098-3.102L333.128,26.17c-0.6-0.601-1.499-0.601-2.199,0c-0.6,0.598-0.8,1.698,0,2.297
				l14.495,14.197c0.601,0.598,0.601,1.697,0,2.297L330.63,59.654c-0.599,0.6-0.599,1.7,0,2.301c0.599,0.598,1.699,0.5,2.199,0
				l13.695-13.596c0,0,0,0,0.099-0.1l3.398-3.299C350.62,44.362,350.52,43.263,350.02,42.665z"/>
		</g>
		<g>
			<path fill="#505CA9" d="M291.745,44.962c-0.601-0.6-0.601-1.699,0-2.297l14.194-14.197c0.8-0.599,0.6-1.699,0-2.297
				c-0.7-0.601-1.601-0.601-2.198,0l-13.795,13.393l-3.099,3.102c-0.5,0.598-0.6,1.697,0,2.297l3.099,3.498
				c0.101,0.102,0.101,0.102,0.101,0.102l13.994,13.395c0.5,0.5,1.6,0.598,2.199,0c0.599-0.601,0.599-1.701,0-2.301L291.745,44.962z
				"/>
		</g>
		<g>
			<polygon fill="#505CA9" points="334.427,34.966 321.032,34.966 334.027,15.075 314.536,15.075 304.04,44.663 316.834,44.763 
				306.838,74.05 			"/>
		</g>
	</g>
</g>
<g id="paths">
	<g id="Access_control">
	</g>
	<g id="Azure_active_directory">
	</g>
	<g id="API_Management">
	</g>
	<g id="Azure_automation">
	</g>
	<g id="Azure_SQL_database">
	</g>
	<g id="Azure_subscription">
	</g>
	<g id="Backup_service">
	</g>
	<g id="Bitbucket_code_source">
	</g>
	<g id="Azure_cache">
	</g>
	<g id="Content_delivery_network__x28_CDN_x29_">
	</g>
	<g id="Cloud_service">
	</g>
	<g id="CodePlex">
	</g>
	<g id="Dropbox_code_source">
	</g>
	<g id="Express_route">
	</g>
	<g id="Git_repository">
	</g>
	<g id="GitHub_code">
	</g>
	<g id="HD_Insight">
	</g>
	<g id="Health_monitoring">
	</g>
	<g id="Healthy">
	</g>
	<g id="BizTalk_hybrid_connection">
	</g>
	<g id="Hybrid_connection_manager_for_BizTalk_hybrid_connection">
	</g>
	<g id="Hyper-V_recovery_manager">
	</g>
	<g id="Machine_learning">
	</g>
	<g id="Media_services">
	</g>
	<g id="Microsoft_account">
	</g>
	<g id="Mobile_services">
	</g>
	<g id="Multi-factor_authentication">
	</g>
	<g id="MySQL_database">
	</g>
	<g id="Notification_hub">
	</g>
	<g id="Notification_topic">
	</g>
	<g id="Cloud_Office_365">
	</g>
	<g id="Office_365">
	</g>
	<g id="OS_image">
	</g>
	<g id="Remote_app">
	</g>
	<g id="Task_scheduler">
	</g>
	<g id="Azure_SDK">
	</g>
	<g id="Service_bus">
	</g>
	<g id="Service_bus_queue">
	</g>
	<g id="Service_bus_relay">
	</g>
	<g id="Service_bus_topic">
	</g>
	<g id="Service_endpoint">
	</g>
	<g id="Custom_create">
	</g>
	<g id="SQL_data_sync">
	</g>
	<g>
		<path fill="#505CA9" d="M402.856,242.535c-0.274-0.561-0.828-0.842-1.104-1.404c-0.549-0.279-1.101-0.561-1.647-0.561
			c-0.829,0-1.375,0.279-1.931,0.561c-0.547,0.281-0.822,0.844-1.375,1.123c-0.274,0.563-0.547,1.123-0.824,1.686
			c-0.273,0.561-0.273,1.402-0.273,2.242c0,1.123,0,1.967,0.273,2.527c0.276,0.842,0.55,1.404,0.824,1.684
			c0.277,0.563,0.828,0.844,1.375,0.844c0.556,0.277,1.103,0.277,1.654,0.277c0.55,0,1.102,0,1.375-0.277
			c0.549-0.281,0.825-0.563,1.378-1.123c0.273-0.563,0.547-1.123,0.825-1.684c0.274-0.563,0.274-1.404,0.274-2.525
			c0-0.844,0-1.404-0.274-2.244C403.407,243.658,403.129,243.096,402.856,242.535z"/>
		<path fill="#505CA9" d="M399.276,188.936c-22.019,0-39.633,7.576-39.633,15.994v75.771c0,8.416,17.891,16.273,39.633,16.273
			c22.021,0,39.634-7.576,39.634-15.994v-75.77C439.188,196.793,421.296,188.936,399.276,188.936z M387.443,252.357
			c0,0.561-0.274,1.123-0.552,1.684c-0.275,0.563-0.553,1.123-1.1,1.402c-0.553,0.561-1.1,0.84-1.654,1.123
			c-0.549,0.279-1.375,0.561-2.475,0.842c-0.826,0.281-1.928,0.281-3.303,0.281c-0.552,0-1.377,0-1.928,0
			c-0.552,0-1.101,0-1.65-0.281c-0.552,0-1.102-0.281-1.378-0.281c-0.551,0-0.824-0.279-1.101-0.561v-5.895
			c0.275,0.281,0.826,0.564,1.376,0.842c0.549,0.281,0.825,0.564,1.375,0.844c0.553,0.281,1.103,0.281,1.654,0.561
			c0.547,0.279,1.099,0.279,1.649,0.279c0.549,0,0.824,0,1.101-0.279c0.274,0,0.549-0.279,0.549-0.279
			c0.275,0,0.275-0.279,0.275-0.561c0-0.283,0-0.283,0-0.564c0-0.277,0-0.561-0.275-0.84c-0.274-0.281-0.274-0.561-0.549-0.561
			c-0.276-0.283-0.552-0.283-1.101-0.563c-0.552-0.281-0.826-0.281-1.378-0.563c-0.824-0.279-1.649-0.842-2.477-1.402
			c-0.551-0.563-1.102-0.842-1.652-1.404c-0.55-0.561-0.825-1.121-0.825-1.684c-0.274-0.563-0.274-1.402-0.274-1.965
			c0-1.121,0.274-1.963,0.551-2.805c0.55-0.844,1.101-1.686,1.651-2.246c0.824-0.563,1.653-1.121,2.755-1.402
			c1.099-0.281,2.198-0.563,3.575-0.563c0.825,0,1.378,0,1.928,0s1.104,0,1.65,0.279c0.554,0,0.83,0.281,1.376,0.281
			c0.553,0,0.827,0.281,1.1,0.281v5.613c-0.272-0.281-0.547-0.281-1.1-0.563c-0.274-0.281-0.822-0.281-1.376-0.563
			c-0.547-0.279-0.822-0.279-1.375-0.279c-0.548,0-1.1,0-1.65,0c-0.828,0-1.376,0-1.652,0.279c-0.552,0.279-0.552,0.563-0.552,1.123
			c0,0.279,0,0.561,0.275,0.561c0,0.279,0.275,0.279,0.552,0.563c0.274,0.279,0.549,0.279,0.824,0.563
			c0.275,0.279,0.825,0.279,1.378,0.561c0.824,0.281,1.652,0.842,2.475,1.123c0.827,0.563,1.376,0.84,1.929,1.402
			c0.55,0.561,0.825,1.123,1.377,1.686c0.271,0.561,0.549,1.4,0.549,2.523C387.715,251.236,387.443,251.795,387.443,252.357z
			 M403.682,263.021l-4.681-5.053c-1.375,0-2.75-0.563-3.853-0.844c-1.103-0.559-2.204-1.402-3.026-2.244
			c-0.828-0.842-1.654-1.963-2.204-3.367c-0.55-1.4-0.827-2.805-0.827-4.488c0-1.686,0.277-3.367,0.827-4.771
			c0.549-1.404,1.376-2.523,2.204-3.646c0.822-1.125,2.198-1.686,3.3-2.246c1.376-0.563,2.751-0.842,4.406-0.842
			c1.65,0,3.026,0.279,4.129,0.842c1.376,0.561,2.475,1.402,3.3,2.246c0.828,0.842,1.653,2.242,2.203,3.367
			c0.551,1.4,0.825,2.805,0.825,4.77c0,1.123,0,2.525-0.549,3.369c-0.276,1.123-0.827,1.965-1.377,2.805
			c-0.55,0.844-1.103,1.684-1.928,2.246c-0.826,0.559-1.376,1.123-2.475,1.684l7.154,6.174H403.682L403.682,263.021z
			 M427.351,257.408h-13.762v-21.609h6.332v16.561h7.43V257.408L427.351,257.408z M399.276,212.508
			c-15.688,0-28.348-3.93-28.348-8.699s12.66-8.697,28.348-8.697c15.689,0,28.351,3.928,28.351,8.697
			S414.966,212.508,399.276,212.508z"/>
	</g>
</g>
<g id="paths_1_">
	<g id="Access_control_1_">
	</g>
	<g id="Azure_active_directory_1_">
	</g>
	<g id="API_Management_1_">
	</g>
	<g id="Azure_automation_1_">
	</g>
	<g id="Azure_SQL_database_1_">
		<g>
			<path fill="#505CA9" d="M510.111,250.34c0.285,0.572,0.857,0.859,1.433,0.859c0.573,0.287,1.146,0.287,1.721,0.287
				c0.577,0,1.15,0,1.437-0.287c0.577-0.287,0.861-0.572,1.436-1.146c0.289-0.572,0.577-1.146,0.862-1.723
				c0.285-0.574,0.285-1.434,0.285-2.582c0-0.861,0-1.436-0.285-2.295c-0.285-0.861-0.285-1.438-0.862-2.01
				c-0.288-0.574-0.857-0.861-1.144-1.436c-0.577-0.287-1.15-0.574-1.729-0.574c-0.857,0-1.433,0.287-2.006,0.574
				c-0.577,0.287-0.862,0.861-1.436,1.148c-0.285,0.574-0.577,1.145-0.862,1.721c-0.285,0.574-0.285,1.436-0.285,2.295
				c0,1.15,0,2.01,0.285,2.584C509.538,249.191,509.823,249.766,510.111,250.34z"/>
			<path fill="#505CA9" d="M526.753,272.723c0.865,0,2.013,0,2.872,0.289c4.592-9.186,13.773-15.213,24.394-15.783v-53.664
				c0-8.611-18.653-16.934-41.327-16.934c-22.954,0-41.323,7.748-41.323,16.357v77.484c0,7.748,15.209,15.209,35.011,16.357
				c-0.289-1.148-0.289-2.297-0.289-3.443C506.089,282.193,515.277,272.723,526.753,272.723z M541.678,256.939H527.33v-22.098h6.599
				v16.934h7.749V256.939L541.678,256.939z M512.69,192.656c16.359,0,29.561,4.018,29.561,8.896c0,4.877-13.2,8.896-29.561,8.896
				c-16.354,0-29.558-4.02-29.558-8.896C483.133,196.674,496.338,192.656,512.69,192.656z M500.354,251.775
				c0,0.57-0.288,1.146-0.573,1.721c-0.288,0.574-0.573,1.148-1.15,1.436c-0.57,0.574-1.146,0.861-1.721,1.146
				c-0.57,0.287-1.438,0.576-2.583,0.861c-0.859,0.289-2.01,0.289-3.445,0.289c-0.574,0-1.433,0-2.006,0
				c-0.577,0-1.146,0-1.725-0.289c-0.573,0-1.145-0.285-1.434-0.285c-0.572,0-0.86-0.289-1.149-0.576v-6.025
				c0.289,0.287,0.861,0.574,1.438,0.859c0.57,0.287,0.858,0.574,1.434,0.863c0.572,0.285,1.146,0.285,1.721,0.57
				c0.577,0.289,1.146,0.289,1.721,0.289c0.577,0,0.865,0,1.15-0.289c0.285,0,0.573-0.285,0.573-0.285
				c0.288,0,0.288-0.285,0.288-0.574c0-0.285,0-0.285,0-0.574c0-0.285,0-0.572-0.288-0.859s-0.288-0.572-0.573-0.572
				c-0.285-0.287-0.573-0.287-1.15-0.574c-0.574-0.287-0.857-0.287-1.433-0.574c-0.862-0.287-1.722-0.861-2.583-1.436
				c-0.573-0.572-1.147-0.861-1.721-1.436c-0.577-0.574-0.862-1.146-0.862-1.721c-0.288-0.574-0.288-1.438-0.288-2.01
				c0-1.148,0.288-2.01,0.573-2.871c0.577-0.859,1.149-1.721,1.725-2.295c0.858-0.574,1.721-1.148,2.868-1.436
				c1.146-0.287,2.298-0.572,3.732-0.572c0.858,0,1.434,0,2.011,0c0.568,0,1.144,0,1.721,0.285c0.57,0,0.858,0.287,1.436,0.287
				c0.285,0,0.858,0.287,1.147,0.287v5.74c-0.289-0.287-0.577-0.287-1.147-0.574c-0.289-0.287-0.864-0.287-1.436-0.574
				c-0.577-0.287-0.866-0.287-1.438-0.287c-0.572,0-1.149,0-1.721,0c-0.862,0-1.436,0-1.721,0.287
				c-0.577,0.287-0.577,0.574-0.577,1.148c0,0.287,0,0.574,0.289,0.574c0,0.285,0.288,0.285,0.573,0.57
				c0.284,0.289,0.572,0.289,0.861,0.574c0.285,0.289,0.858,0.289,1.434,0.576c0.86,0.287,1.721,0.859,2.583,1.146
				c0.86,0.572,1.436,0.861,2.009,1.434c0.574,0.576,0.862,1.148,1.436,1.723c0.285,0.574,0.574,1.438,0.574,2.584
				C500.354,250.627,500.354,251.201,500.354,251.775z M502.646,250.627c-0.572-1.436-0.861-2.871-0.861-4.594
				c0-1.721,0.289-3.441,0.861-4.877c0.573-1.436,1.437-2.582,2.296-3.73c0.86-1.146,2.298-1.723,3.447-2.297
				c1.434-0.572,2.868-0.859,4.589-0.859c1.722,0,3.156,0.287,4.305,0.859c1.436,0.574,2.583,1.436,3.444,2.297
				c0.862,0.861,1.722,2.295,2.294,3.443c0.574,1.434,0.862,2.871,0.862,4.879c0,1.148,0,2.582-0.573,3.443
				c-0.289,1.148-0.861,2.01-1.436,2.869c-0.574,0.861-1.146,1.723-2.01,2.297c-0.862,0.574-1.434,1.146-2.583,1.721l7.464,6.313
				h-8.611l-4.877-5.164c-1.436,0-2.868-0.572-4.019-0.861c-1.151-0.572-2.298-1.434-3.157-2.295
				C504.083,253.211,503.221,252.063,502.646,250.627z"/>
			<path fill="#505CA9" d="M590.181,301.135c0-5.453-4.308-10.045-9.755-10.619c0.285-1.721,0.57-3.154,0.57-4.877
				c0-14.063-11.477-25.541-25.542-25.541c-10.62,0-20.09,6.314-23.82,16.07c-1.436-0.287-2.868-0.574-4.596-0.574
				c-10.04,0-18.077,8.035-18.077,18.08c0,9.758,7.752,17.793,17.792,18.08h53.958h2.006v-0.287
				C587.021,310.32,590.181,306.014,590.181,301.135z M580.426,308.885h-53.388c-8.319,0-15.206-6.889-15.206-15.211
				c0-8.32,6.887-15.211,15.206-15.211c1.728,0,3.448,0.287,4.881,0.861l1.437,0.576l0.573-1.439
				c3.16-9.182,11.769-15.494,21.525-15.494c12.627,0,22.67,10.33,22.67,22.67c0,2.01-0.285,4.018-0.858,6.027l-0.572,2.297
				l2.006-0.289c0.288,0,0.577,0,0.861,0c4.308,0,7.748,3.445,7.748,7.748C587.309,305.152,584.438,308.596,580.426,308.885z"/>
		</g>
	</g>
</g>
<g>
	<path fill="#505CA9" d="M472.844,69.962c-5.797,4.435-12.63,6.595-19.416,6.595c-9.624,0-19.142-4.321-25.432-12.548
		c-10.747-14.032-8.095-34.099,5.963-44.851c5.796-4.461,12.635-6.59,19.41-6.59c9.625,0,19.146,4.321,25.435,12.556
		C489.552,39.151,486.872,59.223,472.844,69.962"/>
	<path fill="#E7E7E7" d="M466.965,50.173c2.324,3.03,6.637,3.578,9.651,1.284c0.156-0.119,0.278-0.266,0.422-0.395
		c3.084,2.171,5.225,3.606,6.434,4.428c0.355-0.927,0.604-1.814,0.857-2.742c-1.275-0.949-2.998-2.277-5.492-4.296
		c0.818-2.151,0.56-4.659-0.934-6.619c-2.138-2.764-5.923-3.468-8.878-1.763c-3.259-2.923-6.84-6.274-10.615-10.026
		c11.731-6.309,20.064-5.385,20.064-5.385c-1.393-1.774-2.95-3.327-4.615-4.731c-4.947-0.765-12.631-0.679-21.413,3.992
		l-0.003-0.004h-0.001c-2.927-3.063-5.904-6.347-8.938-9.872c-1.45,0.465-2.87,1.04-4.239,1.725
		c2.239,3.663,5.251,7.358,8.646,10.963l0,0c0.006,0.008,0.014,0.015,0.021,0.021c-2.831,1.979-5.979,4.625-8.888,7.7
		c-0.372,0.396-0.729,0.793-1.078,1.191c-1.736-0.363-3.563-0.258-5.27,0.361c-2.897-6.253-2.665-11.276-2.208-13.865
		c-1.257,1.318-2.434,2.704-3.445,4.182c-0.757,3.091-0.972,7.55,1.26,12.922c-2.584,3.381-2.705,8.177-0.005,11.716
		c0.225,0.294,0.465,0.566,0.715,0.826c-1.18,4.015-1.706,7.888-1.869,11.213c0.304,0.412,0.304,0.745,0.604,1.147
		c1.535,1.969,3.462,3.627,5.325,5.13c-0.23-3.521,0.018-8.711,2.193-14.556c1.501,0.113,3.029-0.123,4.458-0.725
		c0.819,0.72,1.677,1.449,2.594,2.19c3.139,2.484,6.271,4.42,9.323,5.942c-0.157,1.553,0.231,3.168,1.238,4.502
		c2.158,2.787,6.151,3.306,8.939,1.178c0.578-0.444,1.038-0.979,1.419-1.558c4.978,1.11,9.327,1.306,12.551,1.306
		c0.494,0,2.787-3.118,4.1-5.05c-1.965,0.409-7.786,1.209-15.743-1.077c-0.192-0.894-0.559-1.761-1.149-2.533
		c-2.021-2.65-5.717-3.225-8.471-1.45c-2.768-1.5-5.663-3.382-8.65-5.747c-0.604-0.479-1.181-0.954-1.739-1.432
		c1.825-2.876,2.02-6.563,0.406-9.664c0.366-0.366,0.726-0.733,1.115-1.098c2.958-2.764,5.74-4.975,8.344-6.75
		c-0.106-0.098-0.2-0.2-0.303-0.299c0.104,0.096,0.202,0.194,0.307,0.291c-0.002,0-0.002,0.001-0.002,0.001
		c3.996,3.694,8.23,7.195,12.242,10.323C465.184,45.322,465.352,48.063,466.965,50.173z"/>
</g>
<g>
	<g>
		<g>
			<path fill="#2C7FC2" d="M603.657,18.757c-0.785,0.629-1.191,0.906-1.543,1.241c-3.576,3.362-7.726,5.483-12.683,5.759
				c-2.854,0.16-5.723,0.288-8.58,0.24c-7.071-0.121-12.95,2.398-17.899,7.447c-10.086,10.286-8.359,28.24,3.537,36.336
				c4.946,3.365,10.422,4.215,16.248,3.944c7.104-0.329,13.549-2.447,19.194-6.81c1.392-1.073,2.625-2.346,4.285-3.848
				c-0.699,0.059-0.809,0.038-0.883,0.079c-0.492,0.27-0.98,0.55-1.469,0.829c-8.244,4.695-17.111,6.512-26.472,5.121
				c-14.717-2.189-21.508-19.191-12.559-31.083c6.979-9.262,20.92-10.325,29.219-2.073c4.502,4.475,6.563,10.016,5.732,16.4
				c-0.375,2.881-1.89,5.158-4.802,6.063c-2.707,0.84-5.172,0.327-7.278-1.741c-0.287-0.281-1.316-0.238-1.683,0.056
				c-2.791,2.268-5.819,3.086-9.334,2.01c-3.688-1.133-6.594-4.943-6.668-8.904c-0.069-3.904,2.556-8.101,6.299-8.91
				c3.105-0.672,6.406-0.661,9.611-0.571c1.994,0.058,3.142,1.805,3.197,4.01c0.049,1.972,0.01,3.947,0.016,5.919
				c0.008,2.966,1.133,4.604,3.281,4.789c2.064,0.179,3.555-1.404,3.982-4.254c0.063-0.414,0.078-0.844,0.045-1.262
				c-0.756-10.803-10.502-16.518-18.619-15.146c-8.045,1.358-14.474,9.693-13.084,17.744c1.281,7.465,8.082,13.417,15.785,13.621
				c2.852,0.077,5.756,0.037,8.559-0.421c12.332-2.021,21.426-8.768,27.285-19.688c4.34-8.087,5.057-16.713,2.5-25.545
				c-0.414-1.431-1.207-2.754-2.105-4.754c-3.604,7.236-8.469,12.039-16.348,13.702C602.257,25.815,603.565,22.751,603.657,18.757z
				 M585.517,48.126c0-1.09-0.059-1.753,0.011-2.404c0.158-1.466-0.427-2.061-1.92-1.956c-1.4,0.098-2.818-0.011-4.226,0.035
				c-2.42,0.073-4.405,1.538-5.26,3.813c-0.813,2.156-0.264,4.747,1.375,6.217c1.924,1.73,4.133,2.179,6.523,1.15
				C585.274,53.583,585.759,50.798,585.517,48.126z"/>
			<g>
				<path fill="#505CA9" d="M603.657,18.757c-0.092,3.994-1.4,7.059-3.229,10.3c7.879-1.663,12.742-6.466,16.349-13.702
					c0.897,2,1.69,3.323,2.104,4.754c2.557,8.832,1.84,17.458-2.5,25.545c-5.859,10.921-14.953,17.668-27.285,19.688
					c-2.803,0.458-5.707,0.498-8.559,0.421c-7.703-0.204-14.504-6.156-15.785-13.621c-1.389-8.051,5.039-16.386,13.084-17.744
					c8.117-1.371,17.863,4.344,18.619,15.146c0.033,0.418,0.018,0.848-0.045,1.262c-0.428,2.85-1.918,4.433-3.982,4.254
					c-2.147-0.186-3.272-1.823-3.28-4.789c-0.007-1.972,0.032-3.947-0.017-5.919c-0.057-2.205-1.203-3.952-3.197-4.01
					c-3.205-0.09-6.506-0.101-9.61,0.571c-3.744,0.81-6.369,5.006-6.299,8.91c0.073,3.961,2.979,7.771,6.668,8.904
					c3.514,1.076,6.543,0.258,9.334-2.01c0.364-0.294,1.395-0.337,1.682-0.056c2.107,2.068,4.572,2.581,7.279,1.741
					c2.912-0.904,4.426-3.182,4.801-6.063c0.83-6.385-1.23-11.926-5.732-16.4c-8.299-8.252-22.239-7.188-29.219,2.073
					c-8.949,11.892-2.158,28.894,12.56,31.083c9.358,1.391,18.227-0.426,26.471-5.121c0.488-0.279,0.977-0.56,1.469-0.829
					c0.074-0.041,0.185-0.021,0.883-0.079c-1.66,1.502-2.895,2.774-4.285,3.848c-5.646,4.362-12.09,6.48-19.194,6.81
					c-5.826,0.271-11.301-0.579-16.248-3.944c-11.896-8.096-13.623-26.05-3.537-36.336c4.949-5.049,10.828-7.568,17.9-7.447
					c2.856,0.048,5.725-0.08,8.58-0.24c4.956-0.275,9.104-2.396,12.682-5.759C602.466,19.663,602.872,19.386,603.657,18.757z"/>
			</g>
			<g>
				<path fill="#505CA9" d="M585.517,48.126c0.242,2.672-0.241,5.457-3.495,6.854c-2.392,1.028-4.601,0.58-6.523-1.15
					c-1.639-1.47-2.188-4.061-1.375-6.217c0.854-2.273,2.84-3.738,5.26-3.812c1.406-0.046,2.824,0.063,4.226-0.035
					c1.493-0.104,2.077,0.49,1.92,1.956C585.458,46.373,585.517,47.036,585.517,48.126z"/>
			</g>
		</g>
	</g>
</g>
<g>
	<g>
		<path fill="#FFFFFF" d="M202.559,44.597c0.003,0,0.007,0,0.011,0c0-9.574,0-19.149-0.002-28.724c0-0.479,0.007-0.964-0.048-1.44
			c-0.121-1.058-0.646-1.603-1.667-1.726c-0.662-0.079-1.331-0.138-1.997-0.138c-10.016-0.009-20.028-0.009-30.042-0.001
			c-0.813,0.001-1.629,0.05-2.438,0.116c-1.332,0.108-1.851,0.64-1.974,1.973c-0.024,0.27-0.023,0.542-0.023,0.814
			c-0.003,10.619-0.006,21.239-0.006,31.858c0,8.738,0.002,17.477,0.013,26.215c0.002,0.56,0.052,1.129,0.168,1.675
			c0.143,0.674,0.617,1.079,1.3,1.198c0.391,0.067,0.787,0.138,1.181,0.138c10.975,0.008,21.95,0.012,32.925-0.001
			c1.983-0.002,2.56-0.617,2.595-2.606c0.001-0.042,0.002-0.084,0.002-0.127C202.559,64.08,202.559,54.339,202.559,44.597z"/>
		<path fill="#505CA9" d="M202.559,44.597c0,9.742,0,19.483,0,29.225c0,0.043-0.001,0.085-0.002,0.127
			c-0.036,1.989-0.611,2.604-2.595,2.606c-10.976,0.013-21.951,0.009-32.925,0.001c-0.394,0-0.791-0.07-1.181-0.138
			c-0.684-0.119-1.157-0.524-1.3-1.198c-0.117-0.546-0.167-1.115-0.168-1.675c-0.011-8.738-0.013-17.477-0.013-26.215
			c0-10.619,0.003-21.239,0.006-31.858c0-0.272-0.001-0.545,0.023-0.814c0.123-1.333,0.642-1.864,1.974-1.973
			c0.81-0.066,1.625-0.115,2.438-0.116c10.013-0.008,20.026-0.008,30.042,0.001c0.666,0,1.334,0.059,1.998,0.138
			c1.02,0.123,1.545,0.668,1.666,1.726c0.055,0.477,0.048,0.961,0.048,1.44c0.002,9.574,0.002,19.149,0.002,28.724
			C202.565,44.597,202.563,44.597,202.559,44.597z M167.135,43.646c0.003,0,0.006,0,0.009,0c0,8.007-0.012,16.012,0.008,24.018
			c0.007,2.103,0.666,2.703,2.774,2.728c0.041,0,0.084,0,0.125,0c8.946,0,17.894,0.003,26.839-0.006
			c0.478-0.001,0.961-0.06,1.43-0.154c0.74-0.151,1.252-0.594,1.366-1.368c0.098-0.659,0.186-1.327,0.186-1.99
			c0.011-15.532,0.009-31.063,0.004-46.594c0-0.499-0.057-1.001-0.116-1.497c-0.078-0.652-0.439-1.09-1.1-1.195
			c-0.491-0.079-0.994-0.111-1.493-0.112c-9.114-0.007-18.227-0.005-27.341-0.004c-0.355,0-0.712-0.009-1.065,0.026
			c-1.12,0.11-1.544,0.564-1.601,1.693c-0.02,0.376-0.023,0.753-0.023,1.129C167.134,28.095,167.135,35.87,167.135,43.646z
			 M183.401,15.448c1.38,0,2.759,0.005,4.138-0.004c0.271-0.002,0.678,0.082,0.634-0.36c-0.014-0.136-0.4-0.329-0.62-0.331
			c-2.716-0.022-5.433-0.024-8.15,0.002c-0.223,0.002-0.445,0.243-0.668,0.373c0.218,0.106,0.433,0.301,0.653,0.306
			C180.726,15.462,182.064,15.448,183.401,15.448z M183.466,73.623c0.562,0,1.126,0.032,1.687-0.011
			c0.407-0.031,0.719-0.249,0.684-0.729c-0.033-0.456-0.365-0.586-0.745-0.591c-1.063-0.014-2.127-0.012-3.189-0.003
			c-0.417,0.004-0.755,0.168-0.787,0.632c-0.031,0.485,0.333,0.66,0.727,0.69C182.38,73.654,182.924,73.623,183.466,73.623z
			 M188.875,72.298c0-0.002,0-0.005,0-0.008c-0.397,0-0.8-0.046-1.188,0.021c-0.194,0.033-0.354,0.269-0.532,0.413
			c0.137,0.162,0.268,0.457,0.413,0.465c0.868,0.047,1.742,0.049,2.613,0.008c0.143-0.006,0.383-0.309,0.373-0.461
			c-0.011-0.155-0.261-0.391-0.433-0.418C189.716,72.257,189.292,72.298,188.875,72.298z M178.074,73.253c0-0.002,0-0.003,0-0.005
			c0.417,0,0.845,0.057,1.246-0.024c0.192-0.038,0.332-0.337,0.497-0.519c-0.178-0.138-0.348-0.388-0.532-0.397
			c-0.77-0.046-1.545-0.051-2.313,0.001c-0.198,0.013-0.379,0.283-0.567,0.436c0.181,0.17,0.341,0.439,0.551,0.486
			C177.311,73.312,177.701,73.253,178.074,73.253z"/>
		<path fill="#E7E7E7" d="M167.135,43.646c0-7.776-0.001-15.552,0-23.327c0-0.376,0.004-0.753,0.023-1.129
			c0.057-1.129,0.481-1.583,1.601-1.693c0.353-0.035,0.709-0.026,1.065-0.026c9.114-0.001,18.228-0.003,27.341,0.004
			c0.499,0.001,1.002,0.033,1.493,0.112c0.659,0.105,1.021,0.543,1.1,1.195c0.06,0.496,0.116,0.998,0.116,1.497
			c0.005,15.531,0.007,31.062-0.004,46.594c0,0.663-0.087,1.331-0.185,1.99c-0.114,0.774-0.627,1.217-1.367,1.368
			c-0.469,0.095-0.952,0.153-1.43,0.154c-8.945,0.009-17.893,0.006-26.838,0.006c-0.042,0-0.085,0-0.125,0
			c-2.108-0.024-2.767-0.625-2.774-2.728c-0.02-8.006-0.008-16.011-0.008-24.018C167.141,43.646,167.138,43.646,167.135,43.646z
			 M169.004,43.625c0.004,0,0.007,0,0.009,0c0,7.297-0.007,14.595,0.006,21.892c0.003,2.218,0.581,2.765,2.815,2.765
			c7.695,0.001,15.391,0.003,23.085-0.005c0.499-0.001,1.002-0.057,1.496-0.136c0.752-0.123,1.271-0.555,1.4-1.325
			c0.104-0.615,0.186-1.243,0.186-1.865c0.011-14.219,0.01-28.438,0.004-42.657c-0.001-0.52-0.051-1.044-0.123-1.561
			c-0.086-0.615-0.428-1.055-1.065-1.156c-0.492-0.077-0.995-0.115-1.494-0.116c-7.904-0.007-15.808-0.006-23.712-0.005
			c-2.317,0-2.605,0.287-2.605,2.59C169.004,29.239,169.004,36.432,169.004,43.625z"/>
		<path fill="#E7E7E7" d="M183.401,15.448c-1.337,0-2.676,0.014-4.012-0.015c-0.221-0.005-0.436-0.199-0.653-0.306
			c0.223-0.13,0.445-0.371,0.668-0.373c2.717-0.026,5.434-0.024,8.15-0.002c0.22,0.002,0.606,0.195,0.62,0.331
			c0.044,0.442-0.362,0.358-0.634,0.36C186.161,15.453,184.782,15.448,183.401,15.448z"/>
		<path fill="#E7E7E7" d="M183.466,73.623c-0.542,0-1.085,0.031-1.625-0.011c-0.393-0.03-0.758-0.205-0.727-0.69
			c0.031-0.464,0.37-0.628,0.787-0.632c1.063-0.009,2.126-0.011,3.189,0.003c0.38,0.005,0.712,0.135,0.745,0.591
			c0.035,0.479-0.276,0.697-0.684,0.729C184.592,73.655,184.027,73.623,183.466,73.623z"/>
		<path fill="#E7E7E7" d="M188.875,72.298c0.417,0,0.84-0.041,1.248,0.02c0.172,0.027,0.422,0.263,0.433,0.418
			c0.01,0.152-0.23,0.455-0.373,0.461c-0.87,0.041-1.744,0.039-2.613-0.008c-0.146-0.008-0.276-0.303-0.413-0.465
			c0.178-0.145,0.338-0.38,0.533-0.413c0.386-0.066,0.789-0.021,1.187-0.021C188.875,72.293,188.875,72.296,188.875,72.298z"/>
		<path fill="#E7E7E7" d="M178.074,73.253c-0.374,0-0.763,0.059-1.119-0.022c-0.209-0.047-0.37-0.316-0.551-0.486
			c0.188-0.152,0.37-0.423,0.567-0.436c0.768-0.052,1.543-0.047,2.313-0.001c0.185,0.01,0.354,0.26,0.532,0.397
			c-0.165,0.182-0.304,0.48-0.497,0.519c-0.401,0.081-0.828,0.024-1.246,0.024C178.075,73.25,178.075,73.251,178.074,73.253z"/>
		<path fill="#505CA9" d="M169.004,43.625c0-7.193,0-14.386,0-21.58c0-2.303,0.288-2.59,2.605-2.59
			c7.904-0.001,15.808-0.002,23.712,0.005c0.499,0.001,1.002,0.039,1.494,0.116c0.639,0.102,0.979,0.541,1.065,1.156
			c0.072,0.517,0.122,1.041,0.123,1.561c0.006,14.219,0.007,28.438-0.004,42.657c0,0.622-0.082,1.25-0.186,1.865
			c-0.13,0.771-0.648,1.202-1.4,1.325c-0.494,0.079-0.997,0.135-1.496,0.136c-7.694,0.008-15.39,0.006-23.085,0.005
			c-2.234,0-2.812-0.547-2.815-2.765c-0.013-7.297-0.006-14.595-0.006-21.892C169.011,43.625,169.008,43.625,169.004,43.625z
			 M192.74,36.301c-0.224-0.103-0.304-0.134-0.377-0.176c-2.842-1.639-5.676-3.287-8.531-4.899
			c-0.208-0.117-0.616-0.061-0.844,0.067c-2.689,1.526-5.362,3.079-8.037,4.63c-0.17,0.099-0.321,0.228-0.509,0.361
			c0.124,0.112,0.176,0.18,0.245,0.221c2.823,1.631,5.639,3.269,8.479,4.866c0.221,0.124,0.655,0.053,0.903-0.085
			c2.041-1.143,4.062-2.322,6.088-3.491C190.95,37.338,191.742,36.878,192.74,36.301z M173.502,37.821
			c-0.037,0.208-0.062,0.289-0.062,0.37c-0.003,3.26-0.013,6.52,0.017,9.778c0.001,0.241,0.243,0.572,0.465,0.703
			c2.645,1.56,5.308,3.09,7.967,4.626c0.192,0.11,0.393,0.206,0.637,0.333c0.033-0.181,0.066-0.278,0.066-0.377
			c0.003-3.238-0.003-6.477,0.009-9.716c0.002-0.432-0.229-0.626-0.557-0.814c-2.392-1.372-4.776-2.757-7.166-4.134
			C174.451,38.344,174.016,38.107,173.502,37.821z M193.461,37.954c-0.206,0.079-0.345,0.113-0.465,0.182
			c-2.732,1.575-5.458,3.159-8.194,4.724c-0.363,0.208-0.466,0.47-0.464,0.864c0.011,3.09,0.004,6.181,0.008,9.272
			c0,0.193,0.029,0.389,0.05,0.642c0.212-0.102,0.345-0.155,0.468-0.225c2.694-1.556,5.382-3.123,8.085-4.662
			c0.42-0.238,0.576-0.513,0.572-0.991c-0.019-3.049-0.008-6.098-0.011-9.146C193.511,38.415,193.481,38.216,193.461,37.954z"/>
		<path fill="#E7E7E7" d="M192.74,36.301c-0.998,0.577-1.79,1.037-2.583,1.494c-2.026,1.169-4.047,2.349-6.088,3.491
			c-0.248,0.138-0.682,0.209-0.903,0.085c-2.84-1.598-5.656-3.235-8.479-4.866c-0.069-0.041-0.121-0.108-0.245-0.221
			c0.188-0.134,0.339-0.263,0.509-0.361c2.675-1.551,5.348-3.104,8.037-4.63c0.228-0.128,0.636-0.185,0.844-0.067
			c2.855,1.612,5.689,3.261,8.531,4.899C192.438,36.167,192.517,36.198,192.74,36.301z"/>
		<path fill="#E7E7E7" d="M173.502,37.821c0.514,0.286,0.948,0.522,1.377,0.77c2.389,1.377,4.774,2.762,7.166,4.134
			c0.328,0.188,0.559,0.383,0.557,0.814c-0.013,3.239-0.006,6.478-0.009,9.716c0,0.099-0.033,0.196-0.066,0.377
			c-0.245-0.127-0.445-0.223-0.637-0.333c-2.659-1.536-5.322-3.066-7.967-4.626c-0.223-0.131-0.464-0.462-0.465-0.703
			c-0.03-3.259-0.02-6.519-0.017-9.778C173.441,38.11,173.465,38.029,173.502,37.821z"/>
		<path fill="#E7E7E7" d="M193.461,37.954c0.021,0.262,0.05,0.461,0.05,0.659c0.003,3.049-0.007,6.098,0.011,9.146
			c0.004,0.479-0.152,0.753-0.572,0.991c-2.703,1.539-5.393,3.106-8.085,4.662c-0.123,0.069-0.256,0.123-0.468,0.225
			c-0.021-0.253-0.05-0.448-0.05-0.642c-0.004-3.092,0.003-6.183-0.008-9.272c-0.002-0.395,0.101-0.656,0.464-0.864
			c2.736-1.564,5.462-3.148,8.194-4.724C193.116,38.067,193.255,38.033,193.461,37.954z"/>
	</g>
</g>
<g>
	<g>
		<g>
			<path fill="#2C7FC2" d="M40.792,12.349c-6.59,0-13.181,0-19.773,0c-0.568,0-1.138-0.018-1.705,0.008
				c-1.68,0.072-2.798,1.205-2.8,2.877c-0.008,10.002-0.007,20.004,0,30.007c0.001,1.707,1.152,2.839,2.863,2.854
				c1.348,0.012,2.696,0.028,4.043-0.011c0.599-0.017,0.807,0.159,0.798,0.777c-0.031,2.063-0.033,4.128,0.002,6.19
				c0.027,1.556,1.162,2.639,2.713,2.653c1.284,0.012,2.57,0.032,3.853-0.009c0.615-0.021,0.792,0.186,0.783,0.791
				c-0.033,1.979-0.023,3.958-0.009,5.938c0.013,1.805,1.095,2.912,2.902,2.975c0.757,0.025,1.516,0.006,2.274,0.007
				c4.189,0,8.381,0.007,12.571-0.009c0.506-0.002,0.792,0.13,0.861,0.664c0.082,0.625,0.246,1.239,0.308,1.865
				c0.136,1.384-0.486,2.518-1.791,3.018c-0.873,0.336-1.816,0.57-2.746,0.657c-1.758,0.163-3.527,0.204-5.292,0.263
				c-0.453,0.014-0.659,0.137-0.627,0.614c0.03,0.44,0.005,0.884,0.006,1.327c0.001,0.972,0.001,0.973,0.943,0.973
				c10.023,0,20.047,0,30.07,0c0.147,0,0.296-0.011,0.442,0c0.383,0.029,0.529-0.15,0.52-0.522
				c-0.014-0.568-0.029-1.139,0.006-1.705c0.032-0.526-0.174-0.687-0.691-0.688c-1.283-0.008-2.57-0.022-3.847-0.133
				c-0.979-0.084-1.97-0.236-2.912-0.509c-1.479-0.429-2.093-1.47-1.873-2.997c0.107-0.748,0.313-1.481,0.444-2.227
				c0.083-0.471,0.336-0.604,0.789-0.598c1.495,0.021,2.99,0.007,4.485,0.007c2.906-0.001,5.813-0.021,8.717,0.007
				c1.771,0.016,3.406-1.135,3.39-3.359c-0.076-9.749-0.031-19.499-0.034-29.248c0-1.877-1.224-3.105-3.116-3.131
				c-1.074-0.012-2.148-0.002-3.222-0.004c-1.01,0-1.011,0-1.011-1.041c0-1.854,0.004-3.705-0.002-5.559
				c-0.004-1.611-1.043-2.854-2.65-2.998c-1.337-0.119-2.69-0.08-4.036-0.098c-1.012-0.012-1.014-0.002-1.014-0.984
				c0-1.875-0.017-3.75,0.007-5.623c0.01-0.889-0.33-1.586-0.967-2.174c-0.73-0.674-1.617-0.848-2.571-0.846
				C54.858,12.351,47.825,12.349,40.792,12.349z"/>
			<g>
				<g>
					<path fill="#505CA9" d="M40.792,12.349c7.033,0,14.066,0.002,21.1,0c0.954-0.002,1.841,0.172,2.571,0.846
						c0.637,0.588,0.977,1.285,0.967,2.174c-0.024,1.873-0.008,3.748-0.007,5.623c0,0.982,0.001,0.973,1.014,0.984
						c1.346,0.018,2.699-0.021,4.036,0.098c1.607,0.145,2.646,1.387,2.65,2.998c0.006,1.854,0.002,3.705,0.002,5.559
						c0,1.041,0.001,1.041,1.011,1.041c1.074,0.002,2.148-0.008,3.222,0.004c1.893,0.025,3.116,1.254,3.116,3.131
						c0.003,9.749-0.042,19.499,0.034,29.248c0.017,2.225-1.619,3.375-3.39,3.359c-2.905-0.027-5.811-0.008-8.717-0.007
						c-1.495,0-2.99,0.014-4.485-0.007c-0.453-0.006-0.707,0.127-0.789,0.598c-0.131,0.745-0.336,1.479-0.444,2.227
						c-0.22,1.527,0.395,2.568,1.873,2.997c0.942,0.272,1.933,0.425,2.912,0.509c1.277,0.11,2.564,0.125,3.847,0.133
						c0.518,0.002,0.723,0.162,0.691,0.688c-0.035,0.566-0.02,1.137-0.006,1.705c0.009,0.372-0.136,0.552-0.52,0.522
						c-0.146-0.011-0.294,0-0.442,0c-10.023,0-20.047,0-30.07,0c-0.942,0-0.942-0.001-0.943-0.973c0-0.443,0.024-0.887-0.006-1.327
						c-0.032-0.478,0.174-0.601,0.627-0.614c1.765-0.059,3.535-0.1,5.292-0.263c0.93-0.087,1.873-0.321,2.746-0.657
						c1.305-0.5,1.927-1.634,1.791-3.018c-0.062-0.626-0.227-1.24-0.308-1.865c-0.069-0.534-0.355-0.666-0.861-0.664
						c-4.19,0.016-8.381,0.009-12.571,0.009c-0.758-0.001-1.517,0.019-2.274-0.007c-1.807-0.063-2.889-1.17-2.902-2.975
						c-0.015-1.979-0.024-3.959,0.009-5.938c0.01-0.605-0.168-0.812-0.783-0.791c-1.283,0.041-2.569,0.021-3.853,0.009
						c-1.551-0.015-2.686-1.098-2.713-2.653c-0.035-2.063-0.034-4.127-0.002-6.19c0.008-0.618-0.199-0.794-0.798-0.777
						c-1.347,0.039-2.695,0.022-4.043,0.011c-1.711-0.016-2.862-1.147-2.863-2.854c-0.007-10.003-0.008-20.005,0-30.007
						c0.002-1.672,1.121-2.805,2.8-2.877c0.567-0.025,1.137-0.008,1.705-0.008C27.611,12.349,34.202,12.349,40.792,12.349z
						 M56.362,63.647c6.632,0,13.264,0,19.896,0c0.922,0,0.924-0.002,0.924-0.937c0-8.801,0-17.601,0-26.401
						c0-0.963-0.002-0.967-0.963-0.965c-13.263,0.031-26.525,0.063-39.788,0.096c-0.816,0.002-0.82,0.006-0.82,0.861
						c-0.002,8.822-0.002,17.644-0.001,26.465c0,0.88,0.002,0.881,0.919,0.881C43.141,63.647,49.752,63.647,56.362,63.647z
						 M20.18,30.183c0,4.422,0,8.844,0,13.266c0,0.888,0.002,0.889,0.914,0.889c0.8,0.002,1.602-0.027,2.4,0.01
						c0.563,0.027,0.774-0.188,0.715-0.731c-0.021-0.188-0.003-0.378-0.003-0.568c0-5.979,0.009-11.96-0.006-17.94
						c-0.003-1.164,0.322-2.166,1.381-2.707c0.554-0.283,1.246-0.396,1.879-0.406c2.611-0.045,5.222,0.006,7.833-0.039
						c0.538-0.01,1.119-0.18,1.597-0.432c1.34-0.707,2.645-1.48,3.945-2.262c0.432-0.26,0.775-0.271,1.215-0.004
						c1.351,0.816,2.722,1.6,4.099,2.371c0.302,0.168,0.662,0.328,0.995,0.33c4.654,0.021,9.308,0.01,13.961,0.023
						c0.5,0.002,0.66-0.178,0.652-0.666c-0.022-1.432-0.007-2.863-0.007-4.295c-0.001-0.988-0.002-0.992-1.021-0.99
						C50.686,16.057,40.643,16.085,30.6,16.11c-3.201,0.008-6.401,0.014-9.602,0.023c-0.815,0-0.818,0.002-0.818,0.848
						C20.18,21.38,20.18,25.78,20.18,30.183z M48.676,25.71c0,0.012,0,0.021,0,0.031c-6.633,0-13.266,0-19.899,0.002
						c-0.896,0-0.899,0.002-0.899,0.9c-0.001,8.824-0.001,17.646-0.001,26.469c0,0.127,0.01,0.253,0.001,0.379
						c-0.027,0.379,0.149,0.532,0.522,0.527c0.736-0.01,1.473,0,2.21-0.001c0.944-0.001,0.946-0.001,0.946-0.921
						c0-6.084-0.002-12.17,0.002-18.256c0.001-2.084,1.079-3.166,3.143-3.168c2.801-0.004,5.602,0.012,8.402-0.016
						c0.397-0.004,0.834-0.129,1.184-0.322c1.421-0.779,2.826-1.588,4.212-2.428c0.463-0.279,0.825-0.262,1.275,0.008
						c1.408,0.844,2.831,1.666,4.267,2.461c0.314,0.174,0.709,0.283,1.068,0.283c4.527,0.02,9.054,0.002,13.581,0.025
						c0.63,0.004,0.784-0.221,0.77-0.807c-0.034-1.432-0.01-2.863-0.012-4.295c0-0.869-0.003-0.871-0.874-0.871
						C61.942,25.71,55.31,25.71,48.676,25.71z"/>
				</g>
			</g>
			<path fill="#E7E7E7" d="M56.362,63.647c-6.61,0-13.221,0-19.833,0c-0.917,0-0.919-0.001-0.919-0.881
				c-0.001-8.821-0.001-17.643,0.001-26.465c0-0.855,0.003-0.859,0.82-0.861c13.263-0.033,26.524-0.064,39.788-0.096
				c0.961-0.002,0.963,0.002,0.963,0.965c0,8.801,0,17.601,0,26.401c0,0.935-0.002,0.937-0.924,0.937
				C69.626,63.647,62.995,63.647,56.362,63.647z M55.946,55.519c0-1.514-0.011-3.029,0.006-4.545
				c0.005-0.405-0.13-0.651-0.489-0.855c-2.632-1.502-5.25-3.024-7.878-4.533c-0.584-0.336-0.731-0.246-0.733,0.441
				c-0.005,3.031-0.013,6.062,0.018,9.092c0.003,0.273,0.209,0.662,0.438,0.798c2.646,1.56,5.313,3.083,7.979,4.609
				c0.533,0.306,0.653,0.231,0.656-0.397C55.951,58.592,55.946,57.056,55.946,55.519z M56.924,38.267
				c-0.119,0.049-0.24,0.086-0.346,0.146c-2.7,1.551-5.4,3.1-8.095,4.659c-0.482,0.278-0.473,0.456,0.024,0.743
				c2.657,1.541,5.312,3.086,7.989,4.59c0.247,0.14,0.715,0.118,0.971-0.025c2.586-1.451,5.151-2.941,7.719-4.426
				c0.71-0.411,0.71-0.541,0.014-0.943c-2.604-1.508-5.209-3.01-7.815-4.512C57.241,38.415,57.087,38.349,56.924,38.267z
				 M57.879,55.552c0,1.472-0.006,2.944,0.002,4.416c0.005,0.807,0.139,0.881,0.82,0.489c2.551-1.468,5.096-2.948,7.656-4.4
				c0.442-0.25,0.611-0.548,0.608-1.053c-0.02-2.923-0.008-5.846-0.011-8.77c0-0.872-0.088-0.929-0.831-0.503
				c-2.57,1.477-5.133,2.967-7.708,4.435c-0.405,0.23-0.546,0.525-0.542,0.97C57.888,52.606,57.879,54.079,57.879,55.552z"/>
			<path fill="#E7E7E7" d="M27.459,21.993c-0.633,0.01-1.325,0.123-1.879,0.406c-1.059,0.541-1.385,1.543-1.381,2.707
				c0.016,5.98,0.006,11.961,0.006,17.94c0,0.19-0.018,0.381,0.003,0.568c0.059,0.543-0.153,0.759-0.715,0.731
				c-0.798-0.037-1.6-0.008-2.4-0.01c-0.912,0-0.914-0.001-0.914-0.889c0-4.422,0-8.844,0-13.266c0-4.402,0-8.803,0-13.203
				c0-0.846,0.003-0.848,0.818-0.848c3.201-0.01,6.401-0.016,9.602-0.023c10.042-0.025,20.086-0.053,30.129-0.078
				c1.019-0.002,1.02,0.002,1.021,0.99c0,1.432-0.015,2.863,0.007,4.295c0.008,0.488-0.153,0.668-0.652,0.666L27.459,21.993z"/>
			<path fill="#E7E7E7" d="M34.702,31.673c-2.064,0.002-3.142,1.084-3.143,3.168c-0.004,6.086-0.001,12.172-0.002,18.256
				c0,0.92-0.001,0.92-0.946,0.921c-0.738,0.001-1.475-0.009-2.21,0.001c-0.373,0.005-0.549-0.148-0.522-0.527
				c0.009-0.126-0.001-0.252-0.001-0.379c0-8.822,0-17.645,0.001-26.469c0-0.898,0.002-0.9,0.899-0.9
				c6.633-0.002,13.266-0.002,19.899-0.002c0-0.01,0-0.02,0-0.031c6.633,0,13.266,0,19.898,0.002c0.871,0,0.874,0.002,0.874,0.871
				c0.002,1.432-0.022,2.863,0.012,4.295c0.014,0.586-0.14,0.811-0.77,0.807L34.702,31.673z"/>
			<g>
				<path fill="#505CA9" d="M55.946,55.519c0,1.537,0.005,3.073-0.004,4.609c-0.003,0.629-0.124,0.703-0.656,0.397
					c-2.666-1.526-5.333-3.05-7.979-4.609c-0.229-0.136-0.435-0.524-0.438-0.798c-0.031-3.03-0.022-6.061-0.018-9.092
					c0.002-0.688,0.149-0.777,0.733-0.441c2.628,1.509,5.246,3.031,7.878,4.533c0.359,0.204,0.494,0.45,0.489,0.855
					C55.935,52.489,55.946,54.005,55.946,55.519z"/>
			</g>
			<g>
				<path fill="#505CA9" d="M56.924,38.267c0.163,0.082,0.317,0.148,0.461,0.232c2.605,1.502,5.211,3.004,7.815,4.512
					c0.696,0.402,0.696,0.532-0.014,0.943c-2.568,1.484-5.133,2.975-7.719,4.426c-0.255,0.144-0.724,0.165-0.971,0.025
					c-2.678-1.504-5.332-3.049-7.989-4.59c-0.497-0.287-0.506-0.465-0.024-0.743c2.695-1.56,5.395-3.108,8.095-4.659
					C56.684,38.353,56.805,38.315,56.924,38.267z"/>
			</g>
			<g>
				<path fill="#505CA9" d="M57.879,55.552c0-1.473,0.008-2.945-0.006-4.416c-0.004-0.444,0.137-0.739,0.542-0.97
					c2.575-1.468,5.138-2.958,7.708-4.435c0.742-0.426,0.83-0.369,0.831,0.503c0.003,2.924-0.009,5.847,0.011,8.77
					c0.003,0.505-0.166,0.803-0.608,1.053c-2.56,1.452-5.105,2.933-7.656,4.4c-0.682,0.392-0.815,0.317-0.82-0.489
					C57.873,58.496,57.879,57.023,57.879,55.552z"/>
			</g>
		</g>
	</g>
</g>
<g>
	<g>
		<g>
			<path fill="#2C7FC2" d="M715.606,12.35c-6.591,0-13.185,0-19.773,0c-0.568,0-1.139-0.018-1.705,0.007
				c-1.68,0.073-2.797,1.206-2.799,2.877c-0.008,10.003-0.008,20.005,0,30.008c0,1.707,1.149,2.839,2.861,2.854
				c1.348,0.012,2.696,0.028,4.045-0.01c0.598-0.018,0.807,0.158,0.797,0.777c-0.031,2.063-0.031,4.127,0.002,6.189
				c0.028,1.556,1.164,2.64,2.713,2.654c1.285,0.012,2.57,0.032,3.854-0.01c0.615-0.021,0.794,0.187,0.783,0.791
				c-0.033,1.979-0.022,3.958-0.008,5.938c0.014,1.806,1.094,2.912,2.9,2.975c0.758,0.026,1.516,0.007,2.274,0.007
				c4.188,0,8.381,0.008,12.57-0.009c0.506-0.001,0.791,0.13,0.861,0.664c0.082,0.625,0.246,1.239,0.307,1.865
				c0.137,1.384-0.484,2.518-1.789,3.019c-0.875,0.336-1.815,0.569-2.746,0.656c-1.76,0.164-3.526,0.204-5.293,0.263
				c-0.453,0.015-0.66,0.138-0.627,0.614c0.029,0.44,0.006,0.885,0.006,1.327c0,0.972,0,0.973,0.941,0.973
				c10.024,0,20.047,0,30.072,0c0.146,0,0.295-0.011,0.44,0c0.383,0.03,0.529-0.15,0.521-0.522
				c-0.015-0.568-0.029-1.138,0.006-1.705c0.031-0.526-0.174-0.686-0.691-0.688c-1.283-0.007-2.57-0.022-3.848-0.132
				c-0.979-0.085-1.969-0.236-2.912-0.51c-1.477-0.429-2.092-1.47-1.873-2.997c0.107-0.748,0.313-1.481,0.445-2.227
				c0.082-0.471,0.336-0.604,0.787-0.598c1.495,0.021,2.991,0.007,4.485,0.007c2.906,0,5.813-0.021,8.717,0.007
				c1.771,0.017,3.408-1.135,3.39-3.359c-0.074-9.748-0.031-19.499-0.033-29.248c0-1.877-1.223-3.106-3.117-3.13
				c-1.074-0.014-2.146-0.003-3.221-0.005c-1.01,0-1.012,0-1.012-1.041c0-1.853,0.004-3.706-0.003-5.559
				c-0.004-1.611-1.043-2.854-2.649-2.998c-1.338-0.118-2.689-0.079-4.035-0.097c-1.014-0.013-1.014-0.003-1.014-0.986
				c-0.002-1.874-0.019-3.748,0.006-5.622c0.01-0.89-0.33-1.586-0.967-2.173c-0.73-0.675-1.617-0.848-2.57-0.848
				C729.673,12.351,722.64,12.35,715.606,12.35z"/>
			<g>
				<g>
					<path fill="#505CA9" d="M715.606,12.35c7.032,0,14.065,0.001,21.1-0.002c0.953,0,1.84,0.173,2.57,0.848
						c0.637,0.587,0.977,1.283,0.967,2.173c-0.023,1.874-0.008,3.748-0.006,5.622c0,0.983,0,0.974,1.014,0.986
						c1.346,0.018,2.697-0.021,4.035,0.097c1.606,0.144,2.646,1.387,2.649,2.998c0.007,1.853,0.002,3.706,0.002,5.559
						c0,1.041,0.003,1.041,1.013,1.041c1.074,0.002,2.146-0.009,3.221,0.005c1.896,0.023,3.117,1.253,3.117,3.13
						c0.002,9.749-0.041,19.5,0.033,29.248c0.02,2.225-1.619,3.376-3.39,3.359c-2.903-0.027-5.811-0.007-8.717-0.007
						c-1.494,0-2.99,0.014-4.485-0.007c-0.451-0.006-0.705,0.127-0.787,0.598c-0.134,0.745-0.338,1.479-0.445,2.227
						c-0.219,1.527,0.396,2.568,1.873,2.997c0.943,0.273,1.934,0.425,2.912,0.51c1.276,0.109,2.563,0.125,3.848,0.132
						c0.519,0.003,0.724,0.162,0.691,0.688c-0.035,0.567-0.021,1.137-0.006,1.705c0.01,0.372-0.138,0.553-0.521,0.522
						c-0.146-0.011-0.295,0-0.44,0c-10.025,0-20.048,0-30.072,0c-0.941,0-0.941-0.001-0.941-0.973c0-0.442,0.023-0.887-0.006-1.327
						c-0.033-0.477,0.174-0.6,0.627-0.614c1.767-0.059,3.533-0.099,5.293-0.263c0.931-0.087,1.871-0.32,2.746-0.656
						c1.305-0.501,1.926-1.635,1.789-3.019c-0.061-0.626-0.225-1.24-0.307-1.865c-0.07-0.534-0.355-0.665-0.861-0.664
						c-4.189,0.017-8.383,0.009-12.57,0.009c-0.76,0-1.518,0.02-2.274-0.007c-1.808-0.063-2.888-1.169-2.9-2.975
						c-0.016-1.979-0.025-3.959,0.008-5.938c0.01-0.604-0.168-0.812-0.783-0.791c-1.282,0.042-2.567,0.021-3.854,0.01
						c-1.549-0.015-2.684-1.099-2.713-2.654c-0.033-2.063-0.033-4.127-0.002-6.189c0.01-0.619-0.199-0.795-0.797-0.777
						c-1.349,0.038-2.697,0.021-4.045,0.01c-1.711-0.015-2.861-1.146-2.861-2.854c-0.008-10.003-0.008-20.005,0-30.008
						c0.002-1.671,1.119-2.804,2.799-2.877c0.566-0.024,1.137-0.007,1.705-0.007C702.423,12.35,709.017,12.35,715.606,12.35z
						 M731.177,63.647c6.633,0,13.265,0.001,19.896,0c0.922,0,0.924-0.002,0.924-0.937c0-8.801,0-17.601,0-26.401
						c0-0.964-0.002-0.967-0.965-0.965c-13.263,0.031-26.523,0.063-39.787,0.096c-0.816,0.002-0.818,0.005-0.818,0.862
						c-0.002,8.821-0.002,17.643-0.002,26.465c0,0.879,0.002,0.88,0.92,0.88C717.954,63.648,724.567,63.647,731.177,63.647z
						 M694.993,30.183c0,4.422,0,8.844,0,13.266c0,0.888,0.002,0.889,0.914,0.89c0.801,0.002,1.602-0.028,2.399,0.01
						c0.563,0.027,0.775-0.189,0.716-0.732c-0.021-0.188-0.003-0.378-0.003-0.568c0-5.98,0.009-11.96-0.008-17.94
						c-0.002-1.164,0.322-2.165,1.383-2.707c0.554-0.283,1.246-0.396,1.88-0.407c2.61-0.043,5.221,0.006,7.832-0.038
						c0.538-0.009,1.118-0.18,1.596-0.432c1.342-0.707,2.646-1.48,3.945-2.261c0.434-0.26,0.774-0.272,1.217-0.006
						c1.35,0.817,2.723,1.602,4.1,2.372c0.301,0.169,0.66,0.329,0.994,0.331c4.654,0.021,9.309,0.009,13.961,0.022
						c0.5,0.001,0.66-0.179,0.652-0.666c-0.023-1.431-0.009-2.863-0.009-4.295c0-0.988-0.002-0.991-1.02-0.989
						c-10.045,0.025-20.086,0.051-30.129,0.076c-3.201,0.009-6.402,0.016-9.604,0.023c-0.813,0.002-0.817,0.003-0.817,0.849
						C694.993,21.38,694.993,25.781,694.993,30.183z M723.491,25.711c0,0.01,0,0.021,0,0.031c-6.635,0-13.267-0.001-19.898,0
						c-0.897,0-0.899,0.002-0.899,0.902c0,8.822,0,17.646,0,26.468c0,0.127,0.01,0.254,0,0.379
						c-0.027,0.379,0.147,0.532,0.521,0.527c0.736-0.01,1.476,0,2.211,0c0.943-0.001,0.945-0.002,0.945-0.921
						c0-6.085-0.002-12.17,0.002-18.256c0.002-2.085,1.08-3.167,3.145-3.169c2.8-0.003,5.601,0.012,8.4-0.016
						c0.398-0.004,0.834-0.129,1.185-0.321c1.422-0.78,2.825-1.59,4.215-2.429c0.461-0.28,0.823-0.262,1.272,0.008
						c1.408,0.843,2.83,1.666,4.269,2.46c0.313,0.175,0.709,0.283,1.065,0.285c4.527,0.018,9.056,0.001,13.582,0.024
						c0.629,0.003,0.785-0.221,0.771-0.807c-0.033-1.431-0.011-2.863-0.013-4.295c0-0.869-0.004-0.872-0.873-0.872
						C736.755,25.71,730.124,25.711,723.491,25.711z"/>
				</g>
			</g>
			<path fill="#E7E7E7" d="M731.177,63.647c-6.608,0-13.223,0.001-19.832,0c-0.918,0-0.92-0.001-0.92-0.88
				c0-8.822,0-17.644,0.002-26.465c0-0.857,0.002-0.86,0.818-0.862c13.264-0.033,26.524-0.064,39.787-0.096
				c0.963-0.002,0.965,0.001,0.965,0.965c0,8.801,0,17.601,0,26.401c0,0.935-0.002,0.937-0.924,0.937
				C744.44,63.648,737.81,63.647,731.177,63.647z M730.759,55.52c0-1.515-0.01-3.03,0.008-4.545
				c0.005-0.405-0.131-0.651-0.489-0.856c-2.631-1.501-5.25-3.023-7.877-4.533c-0.584-0.336-0.732-0.245-0.732,0.442
				c-0.006,3.03-0.014,6.061,0.016,9.091c0.004,0.273,0.209,0.663,0.439,0.799c2.645,1.56,5.313,3.083,7.977,4.608
				c0.533,0.306,0.654,0.232,0.656-0.397C730.767,58.592,730.759,57.056,730.759,55.52z M731.737,38.267
				c-0.117,0.05-0.24,0.085-0.347,0.146c-2.698,1.55-5.399,3.099-8.096,4.659c-0.482,0.279-0.471,0.456,0.025,0.744
				c2.655,1.541,5.311,3.085,7.987,4.59c0.248,0.139,0.718,0.118,0.972-0.026c2.586-1.451,5.151-2.94,7.721-4.426
				c0.709-0.411,0.709-0.541,0.014-0.943c-2.604-1.507-5.211-3.01-7.815-4.512C732.056,38.415,731.901,38.349,731.737,38.267z
				 M732.694,55.553c0,1.471-0.009,2.943,0.002,4.416c0.004,0.807,0.139,0.88,0.819,0.488c2.552-1.468,5.097-2.948,7.654-4.399
				c0.443-0.25,0.613-0.548,0.609-1.053c-0.021-2.924-0.008-5.847-0.013-8.771c0-0.872-0.088-0.929-0.83-0.502
				c-2.569,1.477-5.133,2.967-7.709,4.435c-0.403,0.23-0.545,0.524-0.543,0.969C732.702,52.607,732.694,54.08,732.694,55.553z"/>
			<path fill="#E7E7E7" d="M702.274,21.992c-0.634,0.011-1.326,0.124-1.88,0.407c-1.061,0.542-1.385,1.543-1.383,2.707
				c0.017,5.98,0.008,11.96,0.008,17.94c0,0.19-0.02,0.381,0.002,0.568c0.062,0.543-0.151,0.76-0.715,0.732
				c-0.799-0.038-1.6-0.008-2.399-0.01c-0.912-0.001-0.914-0.002-0.914-0.89c0-4.422,0-8.844,0-13.266c0-4.401,0-8.803,0-13.203
				c0-0.846,0.004-0.847,0.817-0.849c3.201-0.008,6.402-0.015,9.604-0.023c10.043-0.025,20.084-0.051,30.129-0.076
				c1.018-0.002,1.021,0.001,1.021,0.989c0,1.432-0.017,2.864,0.008,4.295c0.008,0.487-0.152,0.667-0.652,0.666L702.274,21.992z"/>
			<path fill="#E7E7E7" d="M709.517,31.673c-2.063,0.002-3.143,1.084-3.145,3.169c-0.004,6.086-0.002,12.171-0.002,18.256
				c0,0.919-0.002,0.92-0.945,0.921c-0.735,0-1.475-0.01-2.211,0c-0.373,0.005-0.549-0.148-0.521-0.527c0.01-0.125,0-0.252,0-0.379
				c0-8.822,0-17.646,0-26.468c0-0.9,0.002-0.902,0.899-0.902c6.633-0.001,13.265,0,19.898,0c0-0.011,0-0.021,0-0.031
				c6.633,0,13.264-0.001,19.897,0c0.869,0,0.873,0.003,0.873,0.872c0.002,1.432-0.021,2.864,0.013,4.295
				c0.016,0.586-0.142,0.81-0.771,0.807L709.517,31.673z"/>
			<g>
				<path fill="#505CA9" d="M730.759,55.52c0,1.536,0.008,3.072-0.004,4.608c-0.002,0.63-0.123,0.703-0.656,0.397
					c-2.664-1.525-5.332-3.049-7.977-4.608c-0.23-0.136-0.437-0.525-0.439-0.799c-0.028-3.03-0.021-6.061-0.016-9.091
					c0-0.688,0.147-0.778,0.731-0.442c2.628,1.51,5.246,3.032,7.878,4.533c0.358,0.205,0.493,0.451,0.489,0.856
					C730.749,52.489,730.759,54.005,730.759,55.52z"/>
			</g>
			<g>
				<path fill="#505CA9" d="M731.737,38.267c0.164,0.082,0.317,0.148,0.461,0.232c2.604,1.502,5.213,3.005,7.815,4.512
					c0.695,0.402,0.695,0.532-0.014,0.943c-2.568,1.485-5.135,2.975-7.721,4.426c-0.254,0.145-0.724,0.165-0.972,0.026
					c-2.678-1.505-5.332-3.049-7.987-4.59c-0.496-0.288-0.508-0.465-0.025-0.744c2.695-1.561,5.396-3.109,8.096-4.659
					C731.497,38.352,731.62,38.316,731.737,38.267z"/>
			</g>
			<g>
				<path fill="#505CA9" d="M732.694,55.553c0-1.473,0.008-2.945-0.009-4.417c-0.002-0.444,0.14-0.738,0.543-0.969
					c2.576-1.468,5.14-2.958,7.709-4.435c0.742-0.427,0.83-0.37,0.83,0.502c0.005,2.924-0.008,5.847,0.013,8.771
					c0.004,0.505-0.166,0.803-0.609,1.053c-2.559,1.451-5.104,2.932-7.654,4.399c-0.682,0.392-0.815,0.318-0.819-0.488
					C732.688,58.496,732.694,57.023,732.694,55.553z"/>
			</g>
		</g>
	</g>
</g>
<path fill="none" stroke="#505CA9" stroke-width="2" stroke-miterlimit="10" d="M55.952,128.551c0,13.809,11.193,25,25,25h90.471
	h28.685h230.004c13.807,0,25,11.193,25,25v10.385"/>
<path fill="none" stroke="#505CA9" stroke-width="2" stroke-miterlimit="10" d="M186.977,128.551c0,13.809,11.193,25,25,25h128.262
	h28.684h60.988c13.807,0,25,11.193,25,25v10.385"/>
<path fill="none" stroke="#505CA9" stroke-width="2" stroke-miterlimit="10" d="M328.502,128.551c0,13.809,11.193,25,25,25h1.273
	h28.684h45.988c13.807,0,25,11.193,25,25v10.385"/>
<path fill="none" stroke="#505CA9" stroke-width="2" stroke-miterlimit="10" d="M859.048,127.551c0,13.809-11.192,25-25,25h-90.473
	h-28.685H479.46c-13.808,0-25.001,11.193-25.001,25v10.385"/>
<path fill="none" stroke="#505CA9" stroke-width="2" stroke-miterlimit="10" d="M722.021,127.551c0,13.809-11.192,25-25,25H572.333
	h-28.684h-63.988c-13.808,0-25.001,11.193-25.001,25v10.385"/>
<path fill="none" stroke="#505CA9" stroke-width="2" stroke-miterlimit="10" d="M583.069,127.551c0,13.809-11.193,25-25,25h-0.273
	h-28.684h-48.988c-13.808,0-25.001,11.193-25.001,25v10.385"/>
<line fill="none" stroke="#505CA9" stroke-width="2" stroke-miterlimit="10" x1="454.324" y1="127.551" x2="454.324" y2="187.936"/>
</svg>
