<?xml version="1.0" encoding="utf-8"?>
<!-- Generator: Adobe Illustrator 16.0.3, SVG Export Plug-In . SVG Version: 6.00 Build 0)  -->
<!DOCTYPE svg PUBLIC "-//W3C//DTD SVG 1.1//EN" "http://www.w3.org/Graphics/SVG/1.1/DTD/svg11.dtd">
<svg version="1.1" id="Layer_1" xmlns="http://www.w3.org/2000/svg" xmlns:xlink="http://www.w3.org/1999/xlink" x="0px" y="0px"
	 width="340px" height="50px" viewBox="0 0 340 50" enable-background="new 0 0 340 50" xml:space="preserve">
<path fill="#505DAA" d="M99.907,38.645h-3.52c2.85-3.902,4.52-8.697,4.52-13.869c0-13.126-10.74-23.775-24-23.775
	c-13.25,0-24,10.649-24,23.775s10.75,23.775,24,23.775h23c0.55,0,1-0.444,1-0.99v-7.925
	C100.907,39.092,100.457,38.645,99.907,38.645z M76.907,38.645c-7.73,0-14-6.211-14-13.869c0-7.657,6.27-13.869,14-13.869
	c7.73,0,14,6.212,14,13.869C90.907,32.434,84.637,38.645,76.907,38.645z"/>
<path fill="#0E1929" d="M37.5,19.822v0.011c-0.08-0.011-0.17-0.011-0.25-0.011H37.5z"/>
<path fill="#505DAA" d="M11.25,15.364c0,2.467,2.01,4.458,4.5,4.458h18.5c0.08,0,0.17,0,0.25,0.011C42.4,19.962,49,26.331,49,34.187
	c0,7.935-6.49,14.364-14.5,14.364H4c-0.55,0-1-0.444-1-0.99v-7.925c0-0.544,0.45-0.991,1-0.991h30.5c2.49,0,4.5-1.991,4.5-4.458
	s-2.25-4.437-4.74-4.448h-0.01v-0.01H15.5C7.49,29.729,1,23.3,1,15.364C1,7.43,7.49,1,15.5,1c0.08,0,0.17,0,0.25,0.011V1H45
	c0.55,0,1,0.447,1,0.991v7.925c0,0.545-0.45,0.99-1,0.99H15.75C13.26,10.906,11.25,12.898,11.25,15.364z"/>
<path fill="#505DAA" d="M145.907,39.636v7.925c0,0.544-0.451,0.99-1,0.99h-36c-0.55,0-1-0.446-1-0.99V1.991
	c0-0.545,0.45-0.991,1-0.991h8c0.55,0,1,0.446,1,0.991v36.654h27C145.456,38.645,145.907,39.09,145.907,39.636z"/>
<path fill="#505DAA" d="M245.023,3.43v43.588c0,1.102-0.9,1.981-2,1.981h-4.25c-0.549,0-1.049-0.217-1.41-0.584l-2.34-2.318
	l-28-27.739v28.66c0,1.09-0.9,1.981-2,1.981h-6c-1.101,0-2-0.892-2-1.981V3.43c0-1.09,0.899-1.981,2-1.981h4.25
	c0.479,0,0.92,0.168,1.27,0.457c0.102,0.08,0.191,0.168,0.271,0.268l2.209,2.179l28,27.737V3.43c0-1.09,0.899-1.981,2-1.981h6
	C244.123,1.449,245.023,2.341,245.023,3.43z"/>
<path fill="#505DAA" d="M261.242,10.906v8.916h27c1.1,0,2,0.892,2,1.981v5.943c0,1.09-0.9,1.981-2,1.981h-27v8.916h27
	c1.1,0,2,0.892,2,1.981v5.943c0,1.09-0.9,1.981-2,1.981h-35c-1.1,0-2-0.892-2-1.981V2.981c0-1.09,0.9-1.981,2-1.981h35
	c1.1,0,2,0.892,2,1.981v5.944c0,1.091-0.9,1.981-2,1.981H261.242z"/>
<path fill="#505DAA" d="M339,2.981v5.944c0,1.09-0.82,1.981-1.84,1.981H322v35.663c0,1.09-0.9,1.981-2,1.981h-6
	c-1.11,0-2-0.892-2-1.981V10.906h-15.17c-1.01,0-1.83-0.891-1.83-1.981V2.981C295,1.892,295.82,1,296.83,1h40.33
	C338.18,1,339,1.892,339,2.981z"/>
<path fill="#505DAA" d="M153.82,28.362h12.06v11.946C159.82,39.091,155.05,34.364,153.82,28.362z"/>
<path fill="#505DAA" d="M165.88,10.233V22.18h-12.06C155.05,16.177,159.82,11.451,165.88,10.233z"/>
<path fill="#505DAA" d="M172.12,28.362h12.06c-1.229,6.002-6,10.729-12.06,11.946V28.362z"/>
<path fill="#505DAA" d="M184.18,22.18h-12.06V10.233C178.18,11.451,182.95,16.177,184.18,22.18z"/>
</svg>
