<?xml version="1.0" encoding="utf-8"?>
<!-- Generator: Adobe Illustrator 16.0.3, SVG Export Plug-In . SVG Version: 6.00 Build 0)  -->
<!DOCTYPE svg PUBLIC "-//W3C//DTD SVG 1.1//EN" "http://www.w3.org/Graphics/SVG/1.1/DTD/svg11.dtd">
<svg version="1.1" id="Layer_1" xmlns="http://www.w3.org/2000/svg" xmlns:xlink="http://www.w3.org/1999/xlink" x="0px" y="0px"
	 width="806px" height="594px" viewBox="0 0 806 594" enable-background="new 0 0 806 594" xml:space="preserve">
<title>Group</title>
<desc>Created with Sketch.</desc>
<path id="Fill-1" fill="#F0F2FF" d="M766.047,359.471C766.047,160.935,606.083,0,408.766,0C211.449,0,51.485,160.935,51.485,359.471
	c0,52.887,11.442,103.06,31.833,148.281h650.895C754.605,462.53,766.047,412.357,766.047,359.471"/>
<polygon id="Fill-7" fill="#434B58" points="178.335,383.789 565.649,383.789 565.649,101.145 178.335,101.145 "/>
<polygon id="Fill-11" fill="#92C2FC" points="225.743,130.364 266.458,130.364 266.458,124.862 225.743,124.862 "/>
<polygon id="Fill-12" fill="#ED9C95" points="246.379,148.786 274.267,148.786 274.267,143.284 246.379,143.284 "/>
<polygon id="Fill-13" fill="#7AD389" points="337.291,148.786 491.617,148.786 491.617,143.284 337.291,143.284 "/>
<polygon id="Fill-14" fill="#92C2FC" points="294.903,148.786 326.694,148.786 326.694,143.284 294.903,143.284 "/>
<polygon id="Fill-15" fill="#BC7DC6" points="255.861,163.855 311.636,163.855 311.636,158.359 255.861,158.359 "/>
<polygon id="Fill-16" fill="#FFD07E" points="279.286,185.071 350.678,185.071 350.678,179.569 279.286,179.569 "/>
<polygon id="Fill-17" fill="#C27ACD" points="226.301,205.167 304.385,205.167 304.385,199.666 226.301,199.666 "/>
<polygon id="Fill-18" fill="#92C2FC" points="313.309,205.167 369.083,205.167 369.083,199.666 313.309,199.666 "/>
<polygon id="Fill-19" fill="#ED9C95" points="246.379,225.822 350.678,225.822 350.678,220.32 246.379,220.32 "/>
<polygon id="Fill-20" fill="#92C2FC" points="393.624,225.822 462.783,225.822 462.783,220.32 393.624,220.32 "/>
<polygon id="Fill-21" fill="#D1D1D1" points="355.697,225.822 388.604,225.822 388.604,220.32 355.697,220.32 "/>
<polygon id="Fill-22" fill="#7AD389" points="280.402,245.919 372.43,245.919 372.43,240.417 280.402,240.417 "/>
<polygon id="Fill-23" fill="#A1A1A1" points="255.861,245.919 275.382,245.919 275.382,240.417 255.861,240.417 "/>
<polygon id="Fill-24" fill="#92C2FC" points="226.301,260.991 288.768,260.991 288.768,255.489 226.301,255.489 "/>
<polygon id="Fill-25" fill="#FFD07E" points="293.788,260.991 314.981,260.991 314.981,255.489 293.788,255.489 "/>
<polygon id="Fill-26" fill="#ED9C95" points="320.56,260.991 423.184,260.991 423.184,255.489 320.56,255.489 "/>
<polygon id="Fill-27" fill="#67D2CF" points="429.877,260.991 522.462,260.991 522.462,255.489 429.877,255.489 "/>
<polygon id="Fill-28" fill="#FFD07E" points="246.379,281.088 279.286,281.088 279.286,275.586 246.379,275.586 "/>
<polygon id="Fill-29" fill="#4A90E2" points="288.768,281.088 365.736,281.088 365.736,275.586 288.768,275.586 "/>
<polygon id="Fill-30" fill="#C27ACD" points="263.669,301.185 326.137,301.185 326.137,295.683 263.669,295.683 "/>
<polygon id="Fill-31" fill="#ED9C95" points="338.965,301.185 401.432,301.185 401.432,295.683 338.965,295.683 "/>
<polygon id="Fill-32" fill="#7AD389" points="411.472,301.185 470.034,301.185 470.034,295.683 411.472,295.683 "/>
<polygon id="Fill-33" fill="#F5A623" points="510.75,231.071 528.04,231.071 528.04,225.569 510.75,225.569 "/>
<polygon id="Fill-34" fill="#D9D9D9" points="356.813,185.071 481.384,185.071 481.384,179.569 356.813,179.569 "/>
<polygon id="Fill-35" fill="#FFD07E" points="279.286,130.364 444.936,130.364 444.936,124.862 279.286,124.862 "/>
<polygon id="Fill-36" fill="#FFFFFF" points="198.414,125.659 207.337,125.659 207.337,116.727 198.414,116.727 "/>
<polygon id="Fill-37" fill="#FFFFFF" points="198.414,147.43 207.337,147.43 207.337,138.499 198.414,138.499 "/>
<polygon id="Fill-38" fill="#FFFFFF" points="198.414,171.435 207.337,171.435 207.337,162.502 198.414,162.502 "/>
<polygon id="Fill-39" fill="#FFFFFF" points="198.414,193.206 207.337,193.206 207.337,184.274 198.414,184.274 "/>
<polygon id="Fill-40" fill="#FFFFFF" points="198.414,216.093 207.337,216.093 207.337,207.162 198.414,207.162 "/>
<polygon id="Fill-41" fill="#FFFFFF" points="198.414,238.981 207.337,238.981 207.337,230.049 198.414,230.049 "/>
<polygon id="Fill-42" fill="#FFFFFF" points="198.414,261.311 207.337,261.311 207.337,252.379 198.414,252.379 "/>
<polygon id="Fill-43" fill="#FFFFFF" points="198.414,284.199 207.337,284.199 207.337,275.267 198.414,275.267 "/>
<polygon id="Fill-44" fill="#FFFFFF" points="198.414,306.527 207.337,306.527 207.337,297.596 198.414,297.596 "/>
<polygon id="Fill-1_1_" fill="#434B58" points="177.957,101.145 566.902,101.145 566.902,76.645 177.957,76.645 "/>
<polygon id="Stroke-2" fill="none" stroke="#4550E6" stroke-width="5.6378" stroke-linecap="round" stroke-linejoin="round" points="
	178.335,101.145 567.281,101.145 567.281,76.645 178.335,76.645 "/>
<polygon id="Stroke-4" fill="none" stroke="#4550E6" stroke-width="5.6378" stroke-linecap="round" stroke-linejoin="round" points="
	178.335,383.789 567.281,383.789 567.281,101.145 178.335,101.145 "/>
<path id="Stroke-3" fill="none" stroke="#4550E6" stroke-width="6.0549" stroke-linecap="round" stroke-linejoin="round" d="
	M268.87,509.303h504.482"/>
<path id="Stroke-5_1_" fill="none" stroke="#4550E6" stroke-width="6.0549" stroke-linecap="round" stroke-linejoin="round" d="
	M239.766,509.303h16.169"/>
<path id="Stroke-7_1_" fill="none" stroke="#4550E6" stroke-width="6.0549" stroke-linecap="round" stroke-linejoin="round" d="
	M786.288,509.303h16.169"/>
<path id="Fill-9" fill="#F0F2FF" d="M355.78,583.976c0,5.38,52.123,9.745,116.419,9.745c64.289,0,116.419-4.365,116.419-9.745
	c0-5.379-52.13-9.745-116.419-9.745C407.903,574.23,355.78,578.597,355.78,583.976"/>
<path id="Fill-11_1_" fill="#FFFFFF" d="M568.969,357.24c-55.72,0-100.896,45.374-100.896,101.351v27.3
	c0,51.384-18.161,58.458-38.314,58.458h-16.015v35.083h16.015c28.192,0,77.121-23.59,77.121-70.166h124.187
	c0,29.658-21.764,35.083-38.321,35.083h-8.253h-7.762v35.083h7.762h8.253c31.859,0,77.127-6.828,77.127-70.172v-50.669
	C669.871,402.614,624.694,357.24,568.969,357.24"/>
<path id="Stroke-13" fill="none" stroke="#4550E6" stroke-width="6.0549" stroke-linecap="round" stroke-linejoin="round" d="
	M568.969,357.24c-55.72,0-100.896,45.374-100.896,101.351v27.3c0,51.384-18.161,58.458-38.314,58.458h-16.015v35.083h16.015
	c28.192,0,77.121-23.59,77.121-70.166h124.187c0,29.658-21.764,35.083-38.321,35.083h-16.015v35.083h16.015
	c31.859,0,77.127-6.828,77.127-70.172v-50.669C669.871,402.614,624.694,357.24,568.969,357.24z"/>
<polygon id="Fill-15_1_" fill="#FFFFFF" points="592.256,361.139 568.966,376.73 545.688,361.139 545.688,341.648 592.256,341.648 
	"/>
<polygon id="Stroke-17" fill="none" stroke="#4550E6" stroke-width="6.0549" stroke-linecap="round" stroke-linejoin="round" points="
	592.256,361.139 568.966,376.73 545.688,361.139 545.688,341.648 592.256,341.648 "/>
<path id="Fill-23_1_" fill="#FFFFFF" d="M599.949,394.717l17.612-24.941c-7.51-4.158-15.626-7.283-24.145-9.414l-24.448,16.365
	l22.159,19.082C593.818,398.121,597.906,397.614,599.949,394.717"/>
<path id="Stroke-25" fill="none" stroke="#4550E6" stroke-width="6.0549" stroke-linecap="round" stroke-linejoin="round" d="
	M599.949,394.717l17.612-24.941c-7.51-4.158-15.626-7.283-24.145-9.414l-24.448,16.365l22.159,19.082
	C593.818,398.121,597.906,397.614,599.949,394.717z"/>
<path id="Fill-27_1_" fill="#FFFFFF" d="M537.995,394.717l-17.612-24.941c7.51-4.158,15.626-7.283,24.145-9.414l24.447,16.365
	l-22.158,19.082C544.126,398.121,540.038,397.614,537.995,394.717"/>
<path id="Stroke-29" fill="none" stroke="#4550E6" stroke-width="6.0549" stroke-linecap="round" stroke-linejoin="round" d="
	M537.995,394.717l-17.612-24.941c7.51-4.158,15.626-7.283,24.145-9.414l24.447,16.365l-22.158,19.082
	C544.126,398.121,540.038,397.614,537.995,394.717z"/>
<path id="Stroke-31" fill="none" stroke="#4550E6" stroke-width="6.0549" stroke-linecap="round" stroke-linejoin="round" d="
	M506.881,462.49v46.777"/>
<path id="Stroke-33" fill="none" stroke="#4550E6" stroke-width="6.0549" stroke-linecap="round" stroke-linejoin="round" d="
	M631.063,462.49v46.777"/>
<path id="Fill-35_1_" fill="#FFFFFF" d="M576.731,575.538h-11.643c-8.569,0-15.522-6.984-15.522-15.593
	c0-8.615,6.953-15.593,15.522-15.593h11.643V575.538z"/>
<path id="Stroke-37" fill="none" stroke="#4550E6" stroke-width="6.0549" stroke-linecap="round" stroke-linejoin="round" d="
	M576.731,575.538h-11.643c-8.569,0-15.522-6.984-15.522-15.593c0-8.615,6.953-15.593,15.522-15.593h11.643V575.538z"/>
<path id="Fill-39_1_" fill="#FFFFFF" d="M413.743,575.538h-11.642c-8.57,0-15.517-6.984-15.517-15.593
	c0-8.615,6.946-15.593,15.517-15.593h11.642V575.538z"/>
<path id="Stroke-41" fill="none" stroke="#4550E6" stroke-width="6.0549" stroke-linecap="round" stroke-linejoin="round" d="
	M413.743,575.538h-11.642c-8.57,0-15.517-6.984-15.517-15.593c0-8.615,6.946-15.593,15.517-15.593h11.642V575.538z"/>
<path id="Fill-43_1_" fill="#FFFFFF" d="M634.953,271.48v-15.593c0-36.597-29.538-66.268-65.971-66.268
	s-65.971,29.671-65.971,66.268v15.593c-6.429,0-11.642,5.236-11.642,11.694v3.898c0,6.458,5.213,11.695,11.642,11.695
	c0.369,0,0.712-0.078,1.074-0.104c5.459,31.062,32.403,54.677,64.896,54.677c32.494,0,59.433-23.615,64.897-54.677
	c0.362,0.026,0.705,0.104,1.073,0.104c6.43,0,11.643-5.237,11.643-11.695v-3.898C646.596,276.717,641.383,271.48,634.953,271.48"/>
<path id="Stroke-45" fill="none" stroke="#4550E6" stroke-width="6.0549" stroke-linecap="round" stroke-linejoin="round" d="
	M634.953,271.48v-15.593c0-36.597-29.538-66.268-65.971-66.268s-65.971,29.671-65.971,66.268v15.593
	c-6.429,0-11.642,5.236-11.642,11.694v3.898c0,6.458,5.213,11.695,11.642,11.695c0.369,0,0.712-0.078,1.074-0.104
	c5.459,31.062,32.403,54.677,64.896,54.677c32.494,0,59.433-23.615,64.897-54.677c0.362,0.026,0.705,0.104,1.073,0.104
	c6.43,0,11.643-5.237,11.643-11.695v-3.898C646.596,276.717,641.383,271.48,634.953,271.48z"/>
<path id="Fill-47" fill="#D6DAFF" d="M537.938,298.768c0,4.309-3.473,7.797-7.761,7.797c-4.282,0-7.762-3.488-7.762-7.797
	c0-4.307,3.479-7.795,7.762-7.795C534.465,290.972,537.938,294.461,537.938,298.768"/>
<path id="Fill-49" fill="#D6DAFF" d="M615.551,298.768c0,4.309-3.474,7.797-7.762,7.797c-4.281,0-7.761-3.488-7.761-7.797
	c0-4.307,3.479-7.795,7.761-7.795C612.077,290.972,615.551,294.461,615.551,298.768"/>
<path id="Stroke-51" fill="none" stroke="#4550E6" stroke-width="6.0549" stroke-linecap="round" stroke-linejoin="round" d="
	M549.578,314.359c11.746,10.396,27.062,10.396,38.807,0"/>
<path id="Stroke-53" fill="none" stroke="#4550E6" stroke-width="6.0549" stroke-linecap="round" stroke-linejoin="round" d="
	M603.91,279.278c-1.999-3.814-5.511-6.497-9.702-6.497c-4.19,0-7.703,2.683-9.701,6.497"/>
<path id="Stroke-55" fill="none" stroke="#4550E6" stroke-width="6.0549" stroke-linecap="round" stroke-linejoin="round" d="
	M553.456,277.977c-1.998-3.813-5.504-6.497-9.701-6.497c-4.191,0-7.696,2.683-9.701,6.497"/>
<path id="Fill-57" fill="#FFFFFF" d="M514.65,283.177c0,0,3.887-12.572,1.377-27.612c6.824,2.287,18.026-7.471,18.026-7.471v-15.593
	c0,0,22.935,7.796,34.925,7.796c11.998,0,34.933-7.796,34.933-7.796v15.593c0,0,11.209,9.758,18.025,7.471
	c-2.51,15.04,1.378,27.612,1.378,27.612c0-7.602,7.173-12.981,15.108-10.817c0.052-0.072,0.091-0.163,0.148-0.247
	c-1.151-0.377-2.348-0.63-3.615-0.63V255.89c0-36.597-29.544-66.268-65.978-66.268c-36.426,0-65.971,29.671-65.971,66.268v15.593
	c-1.268,0-2.471,0.253-3.608,0.63c0.052,0.084,0.091,0.175,0.148,0.247C507.478,270.196,514.65,275.575,514.65,283.177"/>
<path id="Stroke-59" fill="none" stroke="#4550E6" stroke-width="6.0549" stroke-linecap="round" stroke-linejoin="round" d="
	M514.65,283.177c0,0,3.887-12.572,1.377-27.612c6.824,2.287,18.026-7.471,18.026-7.471v-15.593c0,0,22.935,7.796,34.925,7.796
	c11.998,0,34.933-7.796,34.933-7.796v15.593c0,0,11.209,9.758,18.025,7.471c-2.51,15.04,1.378,27.612,1.378,27.612
	c0-7.602,7.173-12.981,15.108-10.817c0.052-0.072,0.091-0.163,0.148-0.247c-1.151-0.377-2.348-0.63-3.615-0.63V255.89
	c0-36.597-29.544-66.268-65.978-66.268c-36.426,0-65.971,29.671-65.971,66.268v15.593c-1.268,0-2.471,0.253-3.608,0.63
	c0.052,0.084,0.091,0.175,0.148,0.247C507.478,270.196,514.65,275.575,514.65,283.177z"/>
<path id="Stroke-63" fill="none" stroke="#4550E6" stroke-width="6.0549" stroke-linecap="round" stroke-linejoin="round" d="
	M483.6,279.278v-19.491c0-47.362,38.218-85.758,85.368-85.758c47.155,0,85.373,38.396,85.373,85.758v15.593"/>
<path id="Fill-65" fill="#FFFFFF" d="M499.118,306.566h-15.516c-4.295,0-7.768-3.489-7.768-7.797v-23.389
	c0-4.307,3.473-7.796,7.768-7.796h15.516V306.566z"/>
<path id="Stroke-67" fill="none" stroke="#4550E6" stroke-width="6.0549" stroke-linecap="round" stroke-linejoin="round" d="
	M499.118,306.566h-15.516c-4.295,0-7.768-3.489-7.768-7.797v-23.389c0-4.307,3.473-7.796,7.768-7.796h15.516V306.566z"/>
<path id="Fill-69" fill="#D6DAFF" d="M491.355,298.768c0,4.309,3.48,7.797,7.762,7.797c4.288,0,7.762-3.488,7.762-7.797V275.38
	c0-4.308-3.474-7.796-7.762-7.796c-4.281,0-7.762,3.489-7.762,7.796V298.768z"/>
<path id="Stroke-71" fill="none" stroke="#4550E6" stroke-width="6.0549" stroke-linecap="round" stroke-linejoin="round" d="
	M491.355,298.768c0,4.309,3.48,7.797,7.762,7.797c4.288,0,7.762-3.488,7.762-7.797V275.38c0-4.308-3.474-7.796-7.762-7.796
	c-4.281,0-7.762,3.489-7.762,7.796V298.768z"/>
<path id="Fill-73" fill="#FFFFFF" d="M638.825,306.566h15.516c4.295,0,7.769-3.489,7.769-7.797v-23.389
	c0-4.307-3.474-7.796-7.769-7.796h-15.516V306.566z"/>
<path id="Stroke-75" fill="none" stroke="#4550E6" stroke-width="6.0549" stroke-linecap="round" stroke-linejoin="round" d="
	M638.825,306.566h15.516c4.295,0,7.769-3.489,7.769-7.797v-23.389c0-4.307-3.474-7.796-7.769-7.796h-15.516V306.566z"/>
<path id="Fill-77" fill="#D6DAFF" d="M646.581,298.768c0,4.309-3.473,7.797-7.755,7.797c-4.288,0-7.761-3.488-7.761-7.797V275.38
	c0-4.308,3.473-7.796,7.761-7.796c4.282,0,7.755,3.489,7.755,7.796V298.768z"/>
<path id="Stroke-79" fill="none" stroke="#4550E6" stroke-width="6.0549" stroke-linecap="round" stroke-linejoin="round" d="
	M646.581,298.768c0,4.309-3.473,7.797-7.755,7.797c-4.288,0-7.761-3.488-7.761-7.797V275.38c0-4.308,3.473-7.796,7.761-7.796
	c4.282,0,7.755,3.489,7.755,7.796V298.768z"/>
<path id="Fill-85" fill="#D6DAFF" d="M496.056,564.485h14.462l-30.891-96.199c-0.859-2.683-3.35-4.502-6.15-4.502h-9.76
	L496.056,564.485z"/>
<path id="Stroke-87" fill="none" stroke="#4550E6" stroke-width="6.0549" stroke-linejoin="round" d="M496.056,564.485h14.462
	l-30.891-96.199c-0.859-2.683-3.35-4.502-6.15-4.502h-9.76L496.056,564.485z"/>
<path id="Fill-89" fill="#D6DAFF" d="M369.935,564.485h126.121l-32.339-100.701H346.482c-2.069,0-4.01,0.994-5.231,2.67
	c-1.217,1.683-1.56,3.84-0.926,5.821L369.935,564.485z"/>
<path id="Fill-91" fill="#D6DAFF" d="M369.935,564.485h132.589v16.242H382.87c-7.141,0-12.936-5.821-12.936-12.994V564.485z"/>
<path id="Stroke-93" fill="none" stroke="#4550E6" stroke-width="6.0549" stroke-linejoin="round" d="M369.935,564.485h132.589
	v16.242H382.87c-7.141,0-12.936-5.821-12.936-12.994V564.485z"/>
<path id="Fill-95" fill="#D6DAFF" d="M502.523,564.485h58.526c1.785,0,3.233,1.455,3.233,3.248c0,7.173-5.788,12.994-12.936,12.994
	h-48.824V564.485z"/>
<path id="Stroke-97" fill="none" stroke="#4550E6" stroke-width="6.0549" stroke-linejoin="round" d="M502.523,564.485h58.526
	c1.785,0,3.233,1.455,3.233,3.248c0,7.173-5.788,12.994-12.936,12.994h-48.824V564.485z"/>
<path id="Stroke-103" fill="none" stroke="#4550E6" stroke-width="6.0549" stroke-linecap="round" stroke-linejoin="round" d="
	M418.442,493.021l2.917-2.931"/>
<path id="Stroke-105" fill="none" stroke="#4550E6" stroke-width="6.0549" stroke-linejoin="round" d="M369.935,564.485h126.121
	l-32.339-100.701H346.482c-2.069,0-4.01,0.994-5.231,2.67c-1.217,1.683-1.56,3.84-0.926,5.821L369.935,564.485z"/>
<path id="Fill-1_2_" fill="#FFFFFF" d="M755.7,467.651h-47.9v-7.546c0-2.982,2.334-5.402,5.216-5.402h37.471
	c2.88,0,5.214,2.42,5.214,5.402V467.651z"/>
<g id="Group-5" transform="translate(8.073183, 0.000000)">
	<g id="Clip-4">
	</g>
	<defs>
		<filter id="Adobe_OpacityMaskFilter" filterUnits="userSpaceOnUse" x="697.91" y="452.858" width="52.162" height="16.407">
			<feColorMatrix  type="matrix" values="1 0 0 0 0  0 1 0 0 0  0 0 1 0 0  0 0 0 1 0"/>
		</filter>
	</defs>
	<mask maskUnits="userSpaceOnUse" x="697.91" y="452.858" width="52.162" height="16.407" id="mask-2">
		<g filter="url(#Adobe_OpacityMaskFilter)">
			<polygon id="path-1" fill="#FFFFFF" points="697.91,452.859 750.072,452.859 750.072,469.266 697.91,469.266 			"/>
		</g>
	</mask>
	<path id="Fill-3" mask="url(#mask-2)" fill="#4550E6" d="M701.85,465.353h44.283v-5.324c0-1.796-1.471-3.257-3.279-3.257h-37.723
		c-1.81,0-3.281,1.461-3.281,3.257V465.353z M750.072,469.266H697.91v-9.237c0-3.952,3.24-7.17,7.221-7.17h37.723
		c3.981,0,7.219,3.218,7.219,7.17V469.266z"/>
</g>
<polygon id="Fill-6" fill="#F0F2FF" points="754.205,554.518 710.91,554.518 704.032,472.508 761.083,472.508 "/>
<polygon id="Fill-8" fill="#757DE9" fill-opacity="0.91" points="705.133,484.917 759.98,484.917 761.083,471.968 704.032,471.968 
	"/>
<path id="Fill-10" fill="#4550E6" d="M712.707,552.219h39.701l6.553-77.951h-52.808L712.707,552.219z M756.025,556.137h-46.937
	l-7.21-85.787h61.356L756.025,556.137z"/>
<path id="Fill-12_1_" fill="#FFFFFF" d="M765.298,478.442h-64.94c-0.349,0-0.631-0.287-0.631-0.64v-13.829
	c0-0.354,0.282-0.639,0.631-0.639h64.94c0.349,0,0.629,0.285,0.629,0.639v13.829C765.927,478.155,765.646,478.442,765.298,478.442"
	/>
<g id="Clip-15">
</g>
<defs>
	<filter id="Adobe_OpacityMaskFilter_1_" filterUnits="userSpaceOnUse" x="697.573" y="461.178" width="69.968" height="18.884">
		<feColorMatrix  type="matrix" values="1 0 0 0 0  0 1 0 0 0  0 0 1 0 0  0 0 0 1 0"/>
	</filter>
</defs>
<mask maskUnits="userSpaceOnUse" x="697.573" y="461.178" width="69.968" height="18.884" id="mask-4">
	<g filter="url(#Adobe_OpacityMaskFilter_1_)">
		<polygon id="path-3" fill="#FFFFFF" points="697.573,556.137 767.541,556.137 767.541,452.545 744.882,452.545 697.573,452.545 		
			"/>
	</g>
</mask>
<path id="Fill-14_1_" mask="url(#mask-4)" fill="#4550E6" d="M701.506,476.097h62.103v-10.955h-62.103V476.097z M764.947,480.062
	h-64.78c-1.43,0-2.594-1.172-2.594-2.615V463.79c0-1.439,1.164-2.612,2.594-2.612h64.78c1.43,0,2.594,1.173,2.594,2.612v13.656
	C767.541,478.89,766.377,480.062,764.947,480.062z"/>
<path id="Stroke-143" fill="none" stroke="#4550E6" stroke-width="5.6378" stroke-linecap="round" stroke-linejoin="round" d="
	M315.551,554.628H186.074c-4.155,0-7.528-3.375-7.528-7.533c0-4.159,3.373-7.534,7.528-7.534h129.477
	c4.155,0,7.527,3.375,7.527,7.534C323.078,551.253,319.706,554.628,315.551,554.628z"/>
<path id="Stroke-147" fill="none" stroke="#4550E6" stroke-width="5.6378" stroke-linecap="round" stroke-linejoin="round" d="
	M321.573,539.561H192.096c-4.155,0-7.527-3.375-7.527-7.533c0-4.159,3.372-7.534,7.527-7.534h129.477
	c4.155,0,7.527,3.375,7.527,7.534C329.101,536.186,325.729,539.561,321.573,539.561z"/>
<path id="Stroke-151" fill="#FFFFFF" stroke="#4550E6" stroke-width="5.6378" stroke-linecap="round" stroke-linejoin="round" d="
	M315.551,524.493H186.074c-4.155,0-7.528-3.375-7.528-7.534c0-4.158,3.373-7.533,7.528-7.533h129.477
	c4.155,0,7.527,3.375,7.527,7.533C323.078,521.118,319.706,524.493,315.551,524.493z"/>
<path id="Stroke-155" fill="#FFFFFF" stroke="#4550E6" stroke-width="5.6378" stroke-linecap="round" stroke-linejoin="round" d="
	M321.573,509.426H192.096c-4.155,0-7.527-3.375-7.527-7.534c0-4.158,3.372-7.534,7.527-7.534h129.477
	c4.155,0,7.527,3.376,7.527,7.534C329.101,506.051,325.729,509.426,321.573,509.426z"/>
<path id="Stroke-11" fill="none" stroke="#4550E6" stroke-width="5.6378" stroke-linejoin="round" d="M129.85,127.138
	c0-11.95-9.463-21.636-21.137-21.636c-2.696,0-5.245,0.564-7.611,1.497c-2.689-17.185-17.125-30.353-34.677-30.353
	c-17.544,0-31.98,13.168-34.669,30.353c-2.366-0.933-4.915-1.497-7.611-1.497C12.47,105.501,3,115.188,3,127.138
	c0,11.958,9.47,21.644,21.144,21.644h84.569C120.387,148.782,129.85,139.095,129.85,127.138z"/>
<path id="Stroke-11_1_" fill="none" stroke="#4550E6" stroke-width="5.6378" stroke-linejoin="round" d="M765.791,55.001
	c0-11.95-9.463-21.636-21.137-21.636c-2.696,0-5.246,0.564-7.611,1.497c-2.689-17.185-17.126-30.353-34.678-30.353
	c-17.544,0-31.98,13.168-34.669,30.353c-2.366-0.933-4.915-1.497-7.611-1.497c-11.674,0-21.145,9.687-21.145,21.636
	c0,11.958,9.471,21.644,21.145,21.644h84.569C756.328,76.645,765.791,66.959,765.791,55.001z"/>
<polygon id="Fill-16_1_" fill="#FFD07E" points="279.4,319.862 350.792,319.862 350.792,314.359 279.4,314.359 "/>
<polygon id="Fill-17_1_" fill="#C27ACD" points="226.415,339.959 304.499,339.959 304.499,334.457 226.415,334.457 "/>
<polygon id="Fill-18_1_" fill="#92C2FC" points="313.423,339.959 369.197,339.959 369.197,334.457 313.423,334.457 "/>
<polygon id="Fill-19_1_" fill="#ED9C95" points="246.493,360.613 350.792,360.613 350.792,355.111 246.493,355.111 "/>
<polygon id="Fill-20_1_" fill="#92C2FC" points="393.738,360.613 462.897,360.613 462.897,355.111 393.738,355.111 "/>
<polygon id="Fill-21_1_" fill="#D1D1D1" points="355.812,360.613 388.718,360.613 388.718,355.111 355.812,355.111 "/>
<polygon id="Fill-34_1_" fill="#D9D9D9" points="356.927,319.862 481.498,319.862 481.498,314.359 356.927,314.359 "/>
<polygon id="Fill-39_2_" fill="#FFFFFF" points="198.528,327.996 207.452,327.996 207.452,319.064 198.528,319.064 "/>
<polygon id="Fill-40_1_" fill="#FFFFFF" points="198.528,350.885 207.452,350.885 207.452,341.953 198.528,341.953 "/>
</svg>
