<?xml version="1.0" encoding="utf-8"?>
<!-- Generator: Adobe Illustrator 16.0.3, SVG Export Plug-In . SVG Version: 6.00 Build 0)  -->
<!DOCTYPE svg PUBLIC "-//W3C//DTD SVG 1.1//EN" "http://www.w3.org/Graphics/SVG/1.1/DTD/svg11.dtd">
<svg version="1.1" id="Layer_1" xmlns="http://www.w3.org/2000/svg" xmlns:xlink="http://www.w3.org/1999/xlink" x="0px" y="0px"
	 width="806px" height="594px" viewBox="0 0 806 594" enable-background="new 0 0 806 594" xml:space="preserve">
<title>Group</title>
<desc>Created with Sketch.</desc>
<path id="Fill-1" fill="#F0F2FF" d="M766.047,359.471C766.047,160.935,606.083,0,408.766,0C211.449,0,51.485,160.935,51.485,359.471
	c0,52.887,11.442,103.06,31.833,148.281h650.895C754.605,462.53,766.047,412.357,766.047,359.471"/>
<polygon id="Fill-7" fill="#434B58" points="178.335,383.789 565.649,383.789 565.649,110.5 178.335,110.5 "/>
<polygon id="Fill-11" fill="#FFFFFF" points="225.743,149.875 266.458,149.875 266.458,143.67 225.743,143.67 "/>
<polygon id="Fill-12" fill="#FFFFFF" points="246.379,170.649 274.267,170.649 274.267,164.445 246.379,164.445 "/>
<polygon id="Fill-13" fill="#FFFFFF" points="337.291,170.649 533.617,170.649 533.617,164.445 337.291,164.445 "/>
<polygon id="Fill-14" fill="#FFFFFF" points="294.903,170.649 326.694,170.649 326.694,164.445 294.903,164.445 "/>
<polygon id="Fill-15" fill="#FFFFFF" points="255.861,187.643 311.636,187.643 311.636,181.445 255.861,181.445 "/>
<polygon id="Fill-16" fill="#FFFFFF" points="279.286,211.569 350.678,211.569 350.678,205.364 279.286,205.364 "/>
<polygon id="Fill-17" fill="#FFFFFF" points="226.301,234.231 304.385,234.231 304.385,228.027 226.301,228.027 "/>
<polygon id="Fill-18" fill="#FFFFFF" points="313.309,234.231 369.083,234.231 369.083,228.027 313.309,228.027 "/>
<polygon id="Fill-19" fill="#FFFFFF" points="246.379,257.524 350.678,257.524 350.678,251.319 246.379,251.319 "/>
<polygon id="Fill-20" fill="#FFFFFF" points="393.624,257.524 462.783,257.524 462.783,251.319 393.624,251.319 "/>
<polygon id="Fill-21" fill="#FFFFFF" points="355.697,257.524 388.604,257.524 388.604,251.319 355.697,251.319 "/>
<polygon id="Fill-22" fill="#FFFFFF" points="280.402,280.187 372.43,280.187 372.43,273.982 280.402,273.982 "/>
<polygon id="Fill-23" fill="#FFFFFF" points="255.861,280.187 275.382,280.187 275.382,273.982 255.861,273.982 "/>
<polygon id="Fill-24" fill="#FFFFFF" points="226.301,297.184 288.768,297.184 288.768,290.979 226.301,290.979 "/>
<polygon id="Fill-25" fill="#FFFFFF" points="293.788,297.184 314.981,297.184 314.981,290.979 293.788,290.979 "/>
<polygon id="Fill-26" fill="#FFFFFF" points="320.56,297.184 423.184,297.184 423.184,290.979 320.56,290.979 "/>
<polygon id="Fill-27" fill="#FFFFFF" points="429.877,297.184 522.462,297.184 522.462,290.979 429.877,290.979 "/>
<polygon id="Fill-28" fill="#FFFFFF" points="246.379,319.847 279.286,319.847 279.286,313.643 246.379,313.643 "/>
<polygon id="Fill-29" fill="#FFFFFF" points="288.768,319.847 365.736,319.847 365.736,313.643 288.768,313.643 "/>
<polygon id="Fill-30" fill="#FFFFFF" points="263.669,342.51 326.137,342.51 326.137,336.306 263.669,336.306 "/>
<polygon id="Fill-31" fill="#FFFFFF" points="338.965,342.51 401.432,342.51 401.432,336.306 338.965,336.306 "/>
<polygon id="Fill-32" fill="#FFFFFF" points="411.472,342.51 470.034,342.51 470.034,336.306 411.472,336.306 "/>
<polygon id="Fill-33" fill="#FFFFFF" points="510.75,211.569 528.04,211.569 528.04,205.364 510.75,205.364 "/>
<polygon id="Fill-34" fill="#FFFFFF" points="356.813,211.569 502.384,211.569 502.384,205.364 356.813,205.364 "/>
<polygon id="Fill-35" fill="#FFFFFF" points="279.286,149.875 444.936,149.875 444.936,143.67 279.286,143.67 "/>
<polygon id="Fill-36" fill="#FFFFFF" points="198.414,144.569 207.337,144.569 207.337,134.497 198.414,134.497 "/>
<polygon id="Fill-37" fill="#FFFFFF" points="198.414,169.121 207.337,169.121 207.337,159.049 198.414,159.049 "/>
<polygon id="Fill-38" fill="#FFFFFF" points="198.414,196.191 207.337,196.191 207.337,186.118 198.414,186.118 "/>
<polygon id="Fill-39" fill="#FFFFFF" points="198.414,220.742 207.337,220.742 207.337,210.67 198.414,210.67 "/>
<polygon id="Fill-40" fill="#FFFFFF" points="198.414,246.552 207.337,246.552 207.337,236.48 198.414,236.48 "/>
<polygon id="Fill-41" fill="#FFFFFF" points="198.414,272.363 207.337,272.363 207.337,262.291 198.414,262.291 "/>
<polygon id="Fill-42" fill="#FFFFFF" points="198.414,297.544 207.337,297.544 207.337,287.472 198.414,287.472 "/>
<polygon id="Fill-43" fill="#FFFFFF" points="198.414,323.355 207.337,323.355 207.337,313.282 198.414,313.282 "/>
<polygon id="Fill-44" fill="#FFFFFF" points="198.414,348.535 207.337,348.535 207.337,338.463 198.414,338.463 "/>
<polygon id="Fill-45" fill="#FFFFFF" points="198.414,374.347 207.337,374.347 207.337,364.274 198.414,364.274 "/>
<polygon id="Fill-1_1_" fill="#434B58" points="178.335,107.833 567.281,107.833 567.281,76.645 178.335,76.645 "/>
<polygon id="Stroke-2" fill="none" stroke="#4550E6" stroke-width="5.6378" stroke-linecap="round" stroke-linejoin="round" points="
	178.335,107.833 567.281,107.833 567.281,76.645 178.335,76.645 "/>
<polygon id="Stroke-4" fill="none" stroke="#4550E6" stroke-width="5.6378" stroke-linecap="round" stroke-linejoin="round" points="
	178.335,383.789 567.281,383.789 567.281,107.833 178.335,107.833 "/>
<g id="dev-desk" transform="translate(236.222692, 173.578748)">
	<g id="customer-service-man">
		<path id="Stroke-3" fill="none" stroke="#4550E6" stroke-width="6.0549" stroke-linecap="round" stroke-linejoin="round" d="
			M32.647,335.724H537.13"/>
		<path id="Stroke-5_1_" fill="none" stroke="#4550E6" stroke-width="6.0549" stroke-linecap="round" stroke-linejoin="round" d="
			M3.543,335.724h16.169"/>
		<path id="Stroke-7_1_" fill="none" stroke="#4550E6" stroke-width="6.0549" stroke-linecap="round" stroke-linejoin="round" d="
			M550.065,335.724h16.169"/>
		<path id="Fill-9" fill="#F0F2FF" d="M119.558,410.397c0,5.38,52.123,9.745,116.419,9.745c64.289,0,116.419-4.365,116.419-9.745
			c0-5.379-52.13-9.745-116.419-9.745C171.681,400.652,119.558,405.018,119.558,410.397"/>
		<path id="Fill-11_1_" fill="#FFFFFF" d="M332.746,183.661c-55.72,0-100.896,45.374-100.896,101.351v27.3
			c0,51.384-18.161,58.458-38.314,58.458H177.52v35.083h16.015c28.192,0,77.121-23.59,77.121-70.166h124.187
			c0,29.658-21.764,35.083-38.321,35.083h-8.253h-7.762v35.083h7.762h8.253c31.859,0,77.127-6.828,77.127-70.172v-50.669
			C433.648,229.036,388.472,183.661,332.746,183.661"/>
		<path id="Stroke-13" fill="none" stroke="#4550E6" stroke-width="6.0549" stroke-linecap="round" stroke-linejoin="round" d="
			M332.746,183.661c-55.72,0-100.896,45.374-100.896,101.351v27.3c0,51.384-18.161,58.458-38.314,58.458H177.52v35.083h16.015
			c28.192,0,77.121-23.59,77.121-70.166h124.187c0,29.658-21.764,35.083-38.321,35.083h-16.015v35.083h16.015
			c31.859,0,77.127-6.828,77.127-70.172v-50.669C433.648,229.036,388.472,183.661,332.746,183.661z"/>
		<polygon id="Fill-15_1_" fill="#FFFFFF" points="356.033,187.56 332.743,203.152 309.466,187.56 309.466,168.07 356.033,168.07 		
			"/>
		
			<polygon id="Stroke-17" fill="none" stroke="#4550E6" stroke-width="6.0549" stroke-linecap="round" stroke-linejoin="round" points="
			356.033,187.56 332.743,203.152 309.466,187.56 309.466,168.07 356.033,168.07 		"/>
		<path id="Fill-23_1_" fill="#FFFFFF" d="M363.727,221.138l17.612-24.941c-7.51-4.158-15.626-7.283-24.145-9.414l-24.448,16.365
			l22.159,19.082C357.596,224.542,361.684,224.036,363.727,221.138"/>
		<path id="Stroke-25" fill="none" stroke="#4550E6" stroke-width="6.0549" stroke-linecap="round" stroke-linejoin="round" d="
			M363.727,221.138l17.612-24.941c-7.51-4.158-15.626-7.283-24.145-9.414l-24.448,16.365l22.159,19.082
			C357.596,224.542,361.684,224.036,363.727,221.138z"/>
		<path id="Fill-27_1_" fill="#FFFFFF" d="M301.772,221.138l-17.612-24.941c7.51-4.158,15.626-7.283,24.145-9.414l24.447,16.365
			l-22.158,19.082C307.903,224.542,303.815,224.036,301.772,221.138"/>
		<path id="Stroke-29" fill="none" stroke="#4550E6" stroke-width="6.0549" stroke-linecap="round" stroke-linejoin="round" d="
			M301.772,221.138l-17.612-24.941c7.51-4.158,15.626-7.283,24.145-9.414l24.447,16.365l-22.158,19.082
			C307.903,224.542,303.815,224.036,301.772,221.138z"/>
		<path id="Stroke-31" fill="none" stroke="#4550E6" stroke-width="6.0549" stroke-linecap="round" stroke-linejoin="round" d="
			M270.658,288.911v46.777"/>
		<path id="Stroke-33" fill="none" stroke="#4550E6" stroke-width="6.0549" stroke-linecap="round" stroke-linejoin="round" d="
			M394.84,288.911v46.777"/>
		<path id="Fill-35_1_" fill="#FFFFFF" d="M340.509,401.959h-11.643c-8.569,0-15.522-6.984-15.522-15.593
			c0-8.615,6.953-15.593,15.522-15.593h11.643V401.959z"/>
		<path id="Stroke-37" fill="none" stroke="#4550E6" stroke-width="6.0549" stroke-linecap="round" stroke-linejoin="round" d="
			M340.509,401.959h-11.643c-8.569,0-15.522-6.984-15.522-15.593c0-8.615,6.953-15.593,15.522-15.593h11.643V401.959z"/>
		<path id="Fill-39_1_" fill="#FFFFFF" d="M177.52,401.959h-11.642c-8.57,0-15.517-6.984-15.517-15.593
			c0-8.615,6.946-15.593,15.517-15.593h11.642V401.959z"/>
		<path id="Stroke-41" fill="none" stroke="#4550E6" stroke-width="6.0549" stroke-linecap="round" stroke-linejoin="round" d="
			M177.52,401.959h-11.642c-8.57,0-15.517-6.984-15.517-15.593c0-8.615,6.946-15.593,15.517-15.593h11.642V401.959z"/>
		<path id="Fill-43_1_" fill="#FFFFFF" d="M398.73,97.902V82.309c0-36.597-29.538-66.268-65.971-66.268
			s-65.971,29.671-65.971,66.268v15.593c-6.429,0-11.642,5.236-11.642,11.694v3.898c0,6.458,5.213,11.695,11.642,11.695
			c0.369,0,0.712-0.078,1.074-0.104c5.459,31.062,32.403,54.677,64.896,54.677c32.494,0,59.433-23.615,64.897-54.677
			c0.362,0.026,0.705,0.104,1.073,0.104c6.43,0,11.643-5.237,11.643-11.695v-3.898C410.373,103.138,405.16,97.902,398.73,97.902"/>
		<path id="Stroke-45" fill="none" stroke="#4550E6" stroke-width="6.0549" stroke-linecap="round" stroke-linejoin="round" d="
			M398.73,97.902V82.309c0-36.597-29.538-66.268-65.971-66.268s-65.971,29.671-65.971,66.268v15.593
			c-6.429,0-11.642,5.236-11.642,11.694v3.898c0,6.458,5.213,11.695,11.642,11.695c0.369,0,0.712-0.078,1.074-0.104
			c5.459,31.062,32.403,54.677,64.896,54.677c32.494,0,59.433-23.615,64.897-54.677c0.362,0.026,0.705,0.104,1.073,0.104
			c6.43,0,11.643-5.237,11.643-11.695v-3.898C410.373,103.138,405.16,97.902,398.73,97.902z"/>
		<path id="Fill-47" fill="#D6DAFF" d="M301.715,125.189c0,4.309-3.473,7.797-7.761,7.797c-4.282,0-7.762-3.488-7.762-7.797
			c0-4.307,3.479-7.795,7.762-7.795C298.242,117.393,301.715,120.882,301.715,125.189"/>
		<path id="Fill-49" fill="#D6DAFF" d="M379.328,125.189c0,4.309-3.474,7.797-7.762,7.797c-4.281,0-7.761-3.488-7.761-7.797
			c0-4.307,3.479-7.795,7.761-7.795C375.854,117.393,379.328,120.882,379.328,125.189"/>
		<path id="Stroke-51" fill="none" stroke="#4550E6" stroke-width="6.0549" stroke-linecap="round" stroke-linejoin="round" d="
			M313.355,140.781c11.746,10.396,27.062,10.396,38.807,0"/>
		<path id="Stroke-53" fill="none" stroke="#4550E6" stroke-width="6.0549" stroke-linecap="round" stroke-linejoin="round" d="
			M367.687,105.699c-1.999-3.814-5.511-6.497-9.702-6.497c-4.19,0-7.703,2.683-9.701,6.497"/>
		<path id="Stroke-55" fill="none" stroke="#4550E6" stroke-width="6.0549" stroke-linecap="round" stroke-linejoin="round" d="
			M317.233,104.398c-1.998-3.813-5.504-6.497-9.701-6.497c-4.191,0-7.696,2.683-9.701,6.497"/>
		<path id="Fill-57" fill="#FFFFFF" d="M278.428,109.598c0,0,3.887-12.572,1.377-27.612c6.824,2.287,18.026-7.471,18.026-7.471
			V58.922c0,0,22.935,7.796,34.925,7.796c11.998,0,34.933-7.796,34.933-7.796v15.593c0,0,11.209,9.758,18.025,7.471
			c-2.51,15.04,1.378,27.612,1.378,27.612c0-7.602,7.173-12.981,15.108-10.817c0.052-0.072,0.091-0.163,0.148-0.247
			c-1.151-0.377-2.348-0.63-3.615-0.63V82.311c0-36.597-29.544-66.268-65.978-66.268c-36.426,0-65.971,29.671-65.971,66.268v15.593
			c-1.268,0-2.471,0.253-3.608,0.63c0.052,0.084,0.091,0.175,0.148,0.247C271.255,96.617,278.428,101.996,278.428,109.598"/>
		<path id="Stroke-59" fill="none" stroke="#4550E6" stroke-width="6.0549" stroke-linecap="round" stroke-linejoin="round" d="
			M278.428,109.598c0,0,3.887-12.572,1.377-27.612c6.824,2.287,18.026-7.471,18.026-7.471V58.922c0,0,22.935,7.796,34.925,7.796
			c11.998,0,34.933-7.796,34.933-7.796v15.593c0,0,11.209,9.758,18.025,7.471c-2.51,15.04,1.378,27.612,1.378,27.612
			c0-7.602,7.173-12.981,15.108-10.817c0.052-0.072,0.091-0.163,0.148-0.247c-1.151-0.377-2.348-0.63-3.615-0.63V82.311
			c0-36.597-29.544-66.268-65.978-66.268c-36.426,0-65.971,29.671-65.971,66.268v15.593c-1.268,0-2.471,0.253-3.608,0.63
			c0.052,0.084,0.091,0.175,0.148,0.247C271.255,96.617,278.428,101.996,278.428,109.598z"/>
		<path id="Stroke-63" fill="none" stroke="#4550E6" stroke-width="6.0549" stroke-linecap="round" stroke-linejoin="round" d="
			M247.377,105.699V86.208c0-47.362,38.218-85.758,85.368-85.758c47.155,0,85.373,38.396,85.373,85.758v15.593"/>
		<path id="Fill-65" fill="#FFFFFF" d="M262.895,132.988H247.38c-4.295,0-7.768-3.489-7.768-7.797v-23.389
			c0-4.307,3.473-7.796,7.768-7.796h15.516V132.988z"/>
		<path id="Stroke-67" fill="none" stroke="#4550E6" stroke-width="6.0549" stroke-linecap="round" stroke-linejoin="round" d="
			M262.895,132.988H247.38c-4.295,0-7.768-3.489-7.768-7.797v-23.389c0-4.307,3.473-7.796,7.768-7.796h15.516V132.988z"/>
		<path id="Fill-69" fill="#D6DAFF" d="M255.133,125.189c0,4.309,3.48,7.797,7.762,7.797c4.288,0,7.762-3.488,7.762-7.797v-23.388
			c0-4.308-3.474-7.796-7.762-7.796c-4.281,0-7.762,3.489-7.762,7.796V125.189z"/>
		<path id="Stroke-71" fill="none" stroke="#4550E6" stroke-width="6.0549" stroke-linecap="round" stroke-linejoin="round" d="
			M255.133,125.189c0,4.309,3.48,7.797,7.762,7.797c4.288,0,7.762-3.488,7.762-7.797v-23.388c0-4.308-3.474-7.796-7.762-7.796
			c-4.281,0-7.762,3.489-7.762,7.796V125.189z"/>
		<path id="Fill-73" fill="#FFFFFF" d="M402.603,132.988h15.516c4.295,0,7.769-3.489,7.769-7.797v-23.389
			c0-4.307-3.474-7.796-7.769-7.796h-15.516V132.988z"/>
		<path id="Stroke-75" fill="none" stroke="#4550E6" stroke-width="6.0549" stroke-linecap="round" stroke-linejoin="round" d="
			M402.603,132.988h15.516c4.295,0,7.769-3.489,7.769-7.797v-23.389c0-4.307-3.474-7.796-7.769-7.796h-15.516V132.988z"/>
		<path id="Fill-77" fill="#D6DAFF" d="M410.358,125.189c0,4.309-3.473,7.797-7.755,7.797c-4.288,0-7.761-3.488-7.761-7.797v-23.388
			c0-4.308,3.473-7.796,7.761-7.796c4.282,0,7.755,3.489,7.755,7.796V125.189z"/>
		<path id="Stroke-79" fill="none" stroke="#4550E6" stroke-width="6.0549" stroke-linecap="round" stroke-linejoin="round" d="
			M410.358,125.189c0,4.309-3.473,7.797-7.755,7.797c-4.288,0-7.761-3.488-7.761-7.797v-23.388c0-4.308,3.473-7.796,7.761-7.796
			c4.282,0,7.755,3.489,7.755,7.796V125.189z"/>
		<path id="Fill-85" fill="#D6DAFF" d="M259.833,390.907h14.462l-30.891-96.199c-0.859-2.683-3.35-4.502-6.15-4.502h-9.76
			L259.833,390.907z"/>
		<path id="Stroke-87" fill="none" stroke="#4550E6" stroke-width="6.0549" stroke-linejoin="round" d="M259.833,390.907h14.462
			l-30.891-96.199c-0.859-2.683-3.35-4.502-6.15-4.502h-9.76L259.833,390.907z"/>
		<path id="Fill-89" fill="#D6DAFF" d="M133.712,390.907h126.121l-32.339-100.701H110.26c-2.069,0-4.01,0.994-5.231,2.67
			c-1.217,1.683-1.56,3.84-0.926,5.821L133.712,390.907z"/>
		<path id="Fill-91" fill="#D6DAFF" d="M133.712,390.907h132.589v16.242H146.647c-7.141,0-12.936-5.821-12.936-12.994V390.907z"/>
		<path id="Stroke-93" fill="none" stroke="#4550E6" stroke-width="6.0549" stroke-linejoin="round" d="M133.712,390.907h132.589
			v16.242H146.647c-7.141,0-12.936-5.821-12.936-12.994V390.907z"/>
		<path id="Fill-95" fill="#D6DAFF" d="M266.301,390.907h58.526c1.785,0,3.233,1.455,3.233,3.248
			c0,7.173-5.788,12.994-12.936,12.994h-48.824V390.907z"/>
		<path id="Stroke-97" fill="none" stroke="#4550E6" stroke-width="6.0549" stroke-linejoin="round" d="M266.301,390.907h58.526
			c1.785,0,3.233,1.455,3.233,3.248c0,7.173-5.788,12.994-12.936,12.994h-48.824V390.907z"/>
		<path id="Stroke-105" fill="none" stroke="#4550E6" stroke-width="6.0549" stroke-linejoin="round" d="M133.712,390.907h126.121
			l-32.339-100.701H110.26c-2.069,0-4.01,0.994-5.231,2.67c-1.217,1.683-1.56,3.84-0.926,5.821L133.712,390.907z"/>
	</g>
	<g id="Group-16" transform="translate(458.350951, 278.965844)">
		<path id="Fill-1_2_" fill="#FFFFFF" d="M61.127,15.107h-47.9V7.561c0-2.982,2.334-5.402,5.216-5.402h37.471
			c2.88,0,5.214,2.42,5.214,5.402V15.107z"/>
		<g id="Group-5" transform="translate(8.073183, 0.000000)">
			<g id="Clip-4">
			</g>
			<defs>
				<filter id="Adobe_OpacityMaskFilter" filterUnits="userSpaceOnUse" x="3.337" y="0.314" width="52.162" height="16.407">
					<feColorMatrix  type="matrix" values="1 0 0 0 0  0 1 0 0 0  0 0 1 0 0  0 0 0 1 0"/>
				</filter>
			</defs>
			<mask maskUnits="userSpaceOnUse" x="3.337" y="0.314" width="52.162" height="16.407" id="mask-2">
				<g filter="url(#Adobe_OpacityMaskFilter)">
					<polygon id="path-1" fill="#FFFFFF" points="3.337,0.315 55.499,0.315 55.499,16.721 3.337,16.721 					"/>
				</g>
			</mask>
			<path id="Fill-3" mask="url(#mask-2)" fill="#4550E6" d="M7.276,12.808h44.283V7.484c0-1.796-1.471-3.257-3.279-3.257H10.557
				c-1.81,0-3.281,1.461-3.281,3.257V12.808z M55.499,16.721H3.337V7.484c0-3.952,3.24-7.17,7.221-7.17H48.28
				c3.981,0,7.219,3.218,7.219,7.17V16.721z"/>
		</g>
		<polygon id="Fill-6" fill="#F0F2FF" points="59.631,101.973 16.337,101.973 9.459,19.963 66.509,19.963 		"/>
		<polygon id="Fill-8" fill="#757DE9" fill-opacity="0.91" points="10.559,32.372 65.407,32.372 66.509,19.423 9.459,19.423 		"/>
		<path id="Fill-10" fill="#4550E6" d="M18.133,99.674h39.701l6.553-77.951H11.58L18.133,99.674z M61.452,103.592H14.515
			l-7.21-85.787h61.356L61.452,103.592z"/>
		<path id="Fill-12_1_" fill="#FFFFFF" d="M70.724,25.898H5.784c-0.349,0-0.631-0.287-0.631-0.64V11.429
			c0-0.354,0.282-0.639,0.631-0.639h64.94c0.349,0,0.629,0.285,0.629,0.639v13.829C71.353,25.611,71.073,25.898,70.724,25.898"/>
		<g id="Clip-15">
		</g>
		<defs>
			<filter id="Adobe_OpacityMaskFilter_1_" filterUnits="userSpaceOnUse" x="3" y="8.633" width="69.968" height="18.884">
				<feColorMatrix  type="matrix" values="1 0 0 0 0  0 1 0 0 0  0 0 1 0 0  0 0 0 1 0"/>
			</filter>
		</defs>
		<mask maskUnits="userSpaceOnUse" x="3" y="8.633" width="69.968" height="18.884" id="mask-4">
			<g filter="url(#Adobe_OpacityMaskFilter_1_)">
				<polygon id="path-3" fill="#FFFFFF" points="3,103.592 72.967,103.592 72.967,0 50.308,0 3,0 				"/>
			</g>
		</mask>
		<path id="Fill-14_1_" mask="url(#mask-4)" fill="#4550E6" d="M6.932,23.552h62.103V12.597H6.932V23.552z M70.374,27.517H5.593
			C4.164,27.517,3,26.345,3,24.902V11.245c0-1.439,1.164-2.612,2.594-2.612h64.78c1.43,0,2.594,1.173,2.594,2.612v13.656
			C72.967,26.345,71.803,27.517,70.374,27.517z"/>
	</g>
</g>
<g id="books" transform="translate(175.334743, 494.248577)">
	<path id="Stroke-143" fill="none" stroke="#4550E6" stroke-width="5.6378" stroke-linecap="round" stroke-linejoin="round" d="
		M140.216,60.379H10.739c-4.155,0-7.528-3.375-7.528-7.533c0-4.159,3.373-7.534,7.528-7.534h129.477
		c4.155,0,7.527,3.375,7.527,7.534C147.743,57.004,144.371,60.379,140.216,60.379z"/>
	<path id="Stroke-147" fill="none" stroke="#4550E6" stroke-width="5.6378" stroke-linecap="round" stroke-linejoin="round" d="
		M146.238,45.312H16.761c-4.155,0-7.527-3.375-7.527-7.533c0-4.159,3.372-7.534,7.527-7.534h129.477
		c4.155,0,7.527,3.375,7.527,7.534C153.766,41.937,150.394,45.312,146.238,45.312z"/>
	<path id="Stroke-151" fill="#FFFFFF" stroke="#4550E6" stroke-width="5.6378" stroke-linecap="round" stroke-linejoin="round" d="
		M140.216,30.245H10.739c-4.155,0-7.528-3.375-7.528-7.534c0-4.158,3.373-7.533,7.528-7.533h129.477
		c4.155,0,7.527,3.375,7.527,7.533C147.743,26.87,144.371,30.245,140.216,30.245z"/>
	<path id="Stroke-155" fill="#FFFFFF" stroke="#4550E6" stroke-width="5.6378" stroke-linecap="round" stroke-linejoin="round" d="
		M146.238,15.177H16.761c-4.155,0-7.527-3.375-7.527-7.534c0-4.158,3.372-7.534,7.527-7.534h129.477
		c4.155,0,7.527,3.376,7.527,7.534C153.766,11.802,150.394,15.177,146.238,15.177z"/>
</g>
<path id="Stroke-11" fill="none" stroke="#4550E6" stroke-width="5.6378" stroke-linejoin="round" d="M129.85,127.138
	c0-11.95-9.463-21.636-21.137-21.636c-2.696,0-5.245,0.564-7.611,1.497c-2.689-17.185-17.125-30.353-34.677-30.353
	c-17.544,0-31.98,13.168-34.669,30.353c-2.366-0.933-4.915-1.497-7.611-1.497C12.47,105.501,3,115.188,3,127.138
	c0,11.958,9.47,21.644,21.144,21.644h84.569C120.387,148.782,129.85,139.095,129.85,127.138z"/>
<path id="Stroke-11_1_" fill="none" stroke="#4550E6" stroke-width="5.6378" stroke-linejoin="round" d="M765.791,55.001
	c0-11.95-9.463-21.636-21.137-21.636c-2.696,0-5.246,0.564-7.611,1.497c-2.689-17.185-17.126-30.353-34.678-30.353
	c-17.544,0-31.98,13.168-34.669,30.353c-2.366-0.933-4.915-1.497-7.611-1.497c-11.674,0-21.145,9.687-21.145,21.636
	c0,11.958,9.471,21.644,21.145,21.644h84.569C756.328,76.645,765.791,66.959,765.791,55.001z"/>
</svg>
